<svg width="575" height="539" viewBox="0 0 575 539" fill="none" xmlns="http://www.w3.org/2000/svg">
<path d="M264.266 130.718H250.432L242.273 131.427L233.76 132.846L223.828 135.329L215.315 138.167L207.865 141.36L200.062 145.262L193.677 149.163L188.001 153.065L181.616 158.031L176.295 162.997L173.103 165.835L170.62 168.673L166.718 172.93L162.107 178.96L157.141 186.409L153.593 192.439L148.982 202.017L145.79 210.53L142.952 220.107L140.823 231.104L139.759 242.1V255.224L140.823 265.511L142.952 276.508L145.435 285.021L147.918 292.115L151.82 300.629L155.722 308.078L159.624 314.108L163.171 319.074L166.718 323.685L171.329 328.651L173.812 331.489L177.005 334.682L179.843 337.165L184.454 341.067L190.839 345.678L197.579 349.935L203.964 353.482L210.703 356.674L219.216 359.867L228.439 362.704L236.952 364.478L244.402 365.542L248.303 365.897H266.039L275.617 364.833L287.677 362.35L296.9 359.512L307.187 355.255L316.055 350.644L323.859 345.678L330.953 340.357L332.372 341.067L353.3 361.995L352.591 363.414L349.044 366.961L349.398 368.38L417.505 436.486L419.988 434.358L445.527 408.818L443.399 406.335L377.067 340.002L375.648 340.357L371.746 344.259L370.327 343.55L359.685 332.908L356.848 330.425L349.044 322.621L351.172 319.783L355.429 313.753L360.04 306.304L364.297 298.146L367.134 291.406L371.036 279.7L373.165 270.477L374.583 260.545L374.938 256.289V239.972L373.874 230.394L372.1 221.171L369.617 212.303L366.425 203.435L362.168 194.213L357.912 186.764L354.364 181.443L351.527 177.541L346.915 171.865L343.013 167.609L339.466 163.707L336.629 161.224L332.017 156.967L327.761 153.775L321.021 149.163L316.41 146.326L308.606 142.069L301.157 138.877L295.481 136.748L285.549 133.91L275.262 131.782L269.587 131.073L264.266 130.718ZM258.945 148.809L266.394 149.163L274.198 150.228L283.775 152.356L290.87 154.484L299.383 158.031L307.542 162.288L314.281 166.545L320.666 171.511L324.923 175.413L327.761 177.896L332.017 182.507L335.919 187.118L340.53 193.503L343.723 198.824L347.27 205.209L350.108 211.949L353.655 222.59L355.429 230.749L356.493 238.198L356.848 242.809V253.451L356.138 261.255L354.719 269.413L352.236 278.991L349.044 287.504L344.787 296.372L340.885 302.757L336.629 308.787L332.727 313.398L328.825 317.655L324.213 322.266L320.311 325.459L314.281 330.07L307.542 334.327L299.738 338.584L290.16 342.485L281.292 344.968L272.779 346.742L266.394 347.452L260.719 347.806H254.334L244.756 347.097L236.598 345.678L228.084 343.55L219.216 340.357L210.348 336.1L203.609 332.199L197.579 327.942L193.677 324.749L189.065 320.848L183.39 315.172L180.197 311.27L175.586 305.24L171.684 299.21L166.718 289.632L163.171 280.764L160.688 272.251L158.914 263.383L158.205 257.353L157.85 250.613V246.711L158.559 236.779L160.333 226.138L162.816 217.27L166.009 208.756L169.556 201.307L173.103 195.277L177.005 189.601L180.907 184.635L185.163 180.024L188.001 176.832L190.839 174.348L194.386 171.156L201.126 166.19L208.575 161.579L216.024 157.677L225.956 153.775L235.179 151.292L242.273 149.873L248.303 149.163L258.945 148.809Z" fill="#3D68A2"/>
<path d="M452.622 415.558L451.203 415.912L424.244 442.871L426.373 445.354L434.886 453.867L438.433 455.996L441.98 457.414L443.399 457.769H449.784L454.041 456.35L457.233 454.577L460.78 451.384L463.973 447.837L465.746 444.29L466.811 440.743V434.712L465.392 430.101L463.263 426.554L460.071 423.007L452.622 415.558Z" fill="#3D68A2"/>
<path fill-rule="evenodd" clip-rule="evenodd" d="M273.797 362.006H243.99V350.082H243.984V348.179H251.436V354.554H266.34V348.179H273.792V354.554H273.797V362.006ZM273.792 337.258V280.034H286.833C298.137 280.034 307.325 270.041 307.325 258.871C307.325 247.7 298.137 238.162 286.833 238.162C275.528 238.162 266.34 246.784 266.34 257.954V272.582H251.436V257.954C251.436 246.784 242.248 237.7 230.943 237.7C219.638 237.7 210.45 247.7 210.45 258.871C210.45 270.041 219.638 280.034 230.943 280.034H243.984V337.258H251.436V280.034H266.34V337.258H273.792ZM230.943 272.582H243.984V257.954C243.984 250.897 238.134 245.614 230.943 245.614C223.752 245.614 217.902 251.814 217.902 258.871C217.902 265.928 223.752 272.582 230.943 272.582ZM273.792 257.954V272.582H286.833C294.024 272.582 299.873 265.92 299.873 258.863C299.873 251.806 294.024 245.152 286.833 245.152C279.641 245.152 273.792 250.897 273.792 257.954Z" fill="#3D68A2"/>
<rect x="299.662" y="153" width="17" height="46.1853" transform="rotate(27.9707 299.662 153)" fill="#3D68A2"/>
<path d="M293.155 186.5L293.154 201.682L247 199.989L247 192.5L293.155 186.5Z" fill="#3D68A2"/>
<path d="M246.607 192.477L256.088 197.513L227.659 234.639L246.607 192.477Z" fill="#3D68A2"/>
<path d="M158.483 293.439L165.951 302.316L202.41 260.036L158.483 293.439Z" fill="#3D68A2"/>
<rect x="181.237" y="394.272" width="152.551" height="16.9501" rx="8.47506" fill="#3D68A2"/>
<rect x="189.059" y="416.438" width="138.209" height="18.254" rx="9.12698" fill="#3D68A2"/>
<rect x="220.352" y="439.906" width="75.6236" height="16.9501" rx="8.47506" fill="#3D68A2"/>
</svg>
