<svg width="25" height="25" viewBox="0 0 25 25" fill="none" xmlns="http://www.w3.org/2000/svg">
<path d="M12.5 16.6666C14.2259 16.6666 15.625 15.2676 15.625 13.5416C15.625 11.8157 14.2259 10.4166 12.5 10.4166C10.7741 10.4166 9.375 11.8157 9.375 13.5416C9.375 15.2676 10.7741 16.6666 12.5 16.6666Z" stroke="#808080" stroke-width="2" stroke-linecap="round" stroke-linejoin="round"/>
<path d="M3.125 17.5V9.58329C3.125 8.41652 3.125 7.83313 3.35207 7.38748C3.5518 6.99547 3.87051 6.67676 4.26252 6.47703C4.70817 6.24996 5.29156 6.24996 6.45833 6.24996H7.55692C7.68498 6.24996 7.74901 6.24996 7.80808 6.24319C8.11631 6.20789 8.39276 6.03703 8.56218 5.77714C8.59465 5.72732 8.62329 5.67004 8.68055 5.55551C8.79509 5.32644 8.85236 5.2119 8.91731 5.11227C9.25615 4.59248 9.80904 4.25077 10.4255 4.18016C10.5436 4.16663 10.6717 4.16663 10.9278 4.16663H14.0722C14.3283 4.16663 14.4564 4.16663 14.5745 4.18016C15.1909 4.25077 15.7439 4.59248 16.0827 5.11227C16.1476 5.21189 16.2049 5.32647 16.3195 5.55551C16.3767 5.67005 16.4053 5.72732 16.4378 5.77714C16.6073 6.03703 16.8836 6.20789 17.1919 6.24319C17.251 6.24996 17.315 6.24996 17.4431 6.24996H18.5417C19.7084 6.24996 20.2919 6.24996 20.7375 6.47703C21.1295 6.67676 21.4482 6.99547 21.6479 7.38748C21.875 7.83313 21.875 8.41652 21.875 9.58329V17.5C21.875 18.6667 21.875 19.2502 21.6479 19.6958C21.4482 20.0878 21.1295 20.4065 20.7375 20.6062C20.2919 20.8333 19.7084 20.8333 18.5417 20.8333H6.45833C5.29156 20.8333 4.70817 20.8333 4.26252 20.6062C3.87051 20.4065 3.5518 20.0878 3.35207 19.6958C3.125 19.2502 3.125 18.6667 3.125 17.5Z" stroke="#808080" stroke-width="2" stroke-linecap="round" stroke-linejoin="round"/>
</svg>
