<svg width="20" height="20" viewBox="0 0 20 20" fill="none" xmlns="http://www.w3.org/2000/svg">
<path d="M5.48392 5.506C4.94947 5.506 4.51619 5.93927 4.51619 6.47373C4.51619 7.00818 4.94947 7.44145 5.48392 7.44145V5.506ZM14.5161 7.44145C15.0505 7.44145 15.4838 7.00818 15.4838 6.47373C15.4838 5.93927 15.0505 5.506 14.5161 5.506V7.44145ZM6.61294 8.80789C6.07848 8.80789 5.64521 9.24117 5.64521 9.77561C5.64521 10.3101 6.07848 10.7433 6.61294 10.7433V8.80789ZM13.387 10.7433C13.9215 10.7433 14.3548 10.3101 14.3548 9.77561C14.3548 9.24117 13.9215 8.80789 13.387 8.80789V10.7433ZM5.69424 0.967998V0.000244141L5.68718 0.000295823L5.69424 0.967998ZM14.307 0.967998L14.3144 0.000269982H14.307V0.967998ZM19.0321 5.76406L18.0644 5.75695V5.76406H19.0321ZM19.0321 11.5872H18.0644V11.5943L19.0321 11.5872ZM14.3057 16.3833V17.351H14.3128L14.3057 16.3833ZM5.69424 16.3833V15.4155C5.52855 15.4155 5.36564 15.4581 5.2211 15.5391L5.69424 16.3833ZM0.967857 19.0323H0.000128927C0.000128927 19.3757 0.182255 19.6935 0.478664 19.8672C0.775059 20.0409 1.14133 20.0444 1.441 19.8764L0.967857 19.0323ZM0.967857 5.76406H1.93561L1.93556 5.75695L0.967857 5.76406ZM5.48392 7.44145H14.5161V5.506H5.48392V7.44145ZM6.61294 10.7433H13.387V8.80789H6.61294V10.7433ZM5.69424 1.93573H14.307V0.000269982L5.69424 0.000244141V1.93573ZM14.2997 1.9357C16.3945 1.95153 18.0797 3.66223 18.0644 5.75695L19.9998 5.77117C20.0231 2.60772 17.4778 0.0241922 14.3144 0.000269982L14.2997 1.9357ZM18.0644 5.76406V11.5872H19.9998V5.76406H18.0644ZM18.0644 11.5943C18.0717 12.6005 17.6792 13.5682 16.9729 14.2848L18.3515 15.6434C19.418 14.5611 20.0109 13.0996 19.9998 11.5801L18.0644 11.5943ZM16.9729 14.2848C16.2667 15.0015 15.3048 15.4082 14.2986 15.4155L14.3128 17.351C15.8322 17.3399 17.285 16.7257 18.3515 15.6434L16.9729 14.2848ZM14.3057 15.4155H5.69424V17.351H14.3057V15.4155ZM5.2211 15.5391L0.494715 18.1881L1.441 19.8764L6.16738 17.2274L5.2211 15.5391ZM1.93559 19.0323L1.93561 5.76406H0.000128927V19.0323H1.93559ZM1.93556 5.75695C1.92817 4.75085 2.32077 3.78302 3.02699 3.06638L1.64844 1.70786C0.581901 2.79011 -0.0110064 4.25175 0.000154768 5.77117L1.93556 5.75695ZM3.02699 3.06638C3.73321 2.34976 4.69518 1.94303 5.7013 1.9357L5.68718 0.000295823C4.16776 0.0113666 2.71497 0.625603 1.64844 1.70786L3.02699 3.06638Z" fill="#808080"/>
</svg>
