<svg width="28" height="28" viewBox="0 0 28 28" fill="none" xmlns="http://www.w3.org/2000/svg">
<path d="M13.656 20.8504C17.6293 20.8504 20.8504 17.6293 20.8504 13.656C20.8504 9.68261 17.6293 6.46155 13.656 6.46155C9.68261 6.46155 6.46155 9.68261 6.46155 13.656C6.46155 17.6293 9.68261 20.8504 13.656 20.8504Z" stroke="#808080" stroke-width="1.55" stroke-linecap="round" stroke-linejoin="round"/>
<path d="M16.4008 10.9027C15.6733 10.1728 14.6858 9.76159 13.6553 9.75931C13.0159 9.75917 12.3864 9.91668 11.8224 10.2179C11.2585 10.5191 10.7775 10.9547 10.422 11.4861C10.0666 12.0175 9.84757 12.6285 9.78452 13.2647C9.72147 13.9009 9.81628 14.5429 10.0605 15.1338C10.3048 15.7246 10.6909 16.2462 11.1848 16.6522C11.6787 17.0582 12.265 17.3363 12.892 17.4616C13.5189 17.5869 14.167 17.5558 14.7791 17.3709C15.3912 17.186 15.9482 16.853 16.4008 16.4015" stroke="#808080" stroke-width="1.55" stroke-linecap="round" stroke-linejoin="round"/>
</svg>
