<svg width="29" height="29" viewBox="0 0 29 29" fill="none" xmlns="http://www.w3.org/2000/svg">
<path d="M12.401 3.46611H6.75477C5.09045 3.46611 4.25828 3.46611 3.62259 3.78675C3.06342 4.06879 2.6088 4.51881 2.3239 5.07233C2 5.70161 2 6.52537 2 8.17289V22.2932C2 23.9407 2 24.7646 2.3239 25.3938C2.6088 25.9473 3.06342 26.3974 3.62259 26.6794C4.25828 27 5.09045 27 6.75477 27H21.0191C22.6834 27 23.5156 27 24.1513 26.6794C24.7104 26.3974 25.1651 25.9473 25.4499 25.3938C25.7738 24.7646 25.7738 23.9407 25.7738 22.2932V15.9685M19.0874 5.67242L23.2901 9.83266M12.0485 12.6404L21.9269 2.86162C23.0874 1.71279 24.9691 1.71279 26.1295 2.86162C27.2902 4.01044 27.2902 5.87304 26.1295 7.02186L15.9335 17.1149C14.8019 18.2352 14.2361 18.7954 13.5915 19.2407C13.0195 19.6362 12.4024 19.9637 11.7532 20.2167C11.0217 20.5017 10.2373 20.6584 8.66845 20.9718L7.94346 21.1165L8.01396 20.6279C8.26345 18.8992 8.38821 18.0348 8.67196 17.2277C8.92376 16.5115 9.26773 15.8307 9.69538 15.2016C10.1773 14.4926 10.8011 13.8752 12.0485 12.6404Z" stroke="white" stroke-width="3" stroke-linecap="round" stroke-linejoin="round"/>
</svg>
