<svg width="20" height="20" viewBox="0 0 20 20" fill="none" xmlns="http://www.w3.org/2000/svg">
<path d="M8.24063 2.88864H4.85286C3.85427 2.88864 3.35497 2.88864 2.97356 3.08298C2.63805 3.25393 2.36528 3.5267 2.19434 3.86219C2 4.24361 2 4.74291 2 5.74149V14.3001C2 15.2987 2 15.798 2.19434 16.1794C2.36528 16.5149 2.63805 16.7877 2.97356 16.9586C3.35497 17.1529 3.85427 17.1529 4.85286 17.1529H13.4114C14.41 17.1529 14.9094 17.1529 15.2908 16.9586C15.6262 16.7877 15.899 16.5149 16.0699 16.1794C16.2643 15.798 16.2643 15.2987 16.2643 14.3001V10.4665M12.2525 4.22591L14.774 6.74751M8.02907 8.4493L13.9562 2.52224C14.6524 1.82592 15.7814 1.82592 16.4777 2.52224C17.1741 3.21856 17.1741 4.34752 16.4777 5.04384L10.3601 11.1614C9.68115 11.8405 9.34165 12.18 8.95491 12.4499C8.61168 12.6896 8.24143 12.8881 7.85193 13.0414C7.41303 13.2142 6.94238 13.3091 6.00107 13.4991L5.56607 13.5869L5.60838 13.2907C5.75807 12.2429 5.83292 11.7189 6.00318 11.2298C6.15425 10.7957 6.36064 10.383 6.61723 10.0017C6.90639 9.57199 7.28063 9.19773 8.02907 8.4493Z" stroke="white" stroke-width="2" stroke-linecap="round" stroke-linejoin="round"/>
</svg>
