<svg width="3521" height="3521" viewBox="0 0 3521 3521" fill="none" xmlns="http://www.w3.org/2000/svg">
<circle cx="1760.5" cy="1760.5" r="1760.5" fill="#3D68A2"/>
<g filter="url(#filter0_d_1_47)">
<path d="M903.8 2525.4V1040.8C903.8 864 989.6 791.2 1171.6 791.2C1260 791.2 1338 825 1384.8 903L2131 2106.8H2136.2V996.6C2136.2 858.8 2214.2 791.2 2341.6 791.2C2469 791.2 2547 858.8 2547 996.6V2465.6C2547 2634.6 2474.2 2730.8 2294.8 2730.8C2159.6 2730.8 2115.4 2702.2 2060.8 2616.4L1319.8 1446.4H1314.6V2525.4C1314.6 2663.2 1236.6 2730.8 1109.2 2730.8C981.8 2730.8 903.8 2663.2 903.8 2525.4Z" fill="white"/>
</g>
<defs>
<filter id="filter0_d_1_47" x="903.8" y="791.2" width="1731.7" height="1984.1" filterUnits="userSpaceOnUse" color-interpolation-filters="sRGB">
<feFlood flood-opacity="0" result="BackgroundImageFix"/>
<feColorMatrix in="SourceAlpha" type="matrix" values="0 0 0 0 0 0 0 0 0 0 0 0 0 0 0 0 0 0 127 0" result="hardAlpha"/>
<feOffset dx="85" dy="41"/>
<feGaussianBlur stdDeviation="1.75"/>
<feComposite in2="hardAlpha" operator="out"/>
<feColorMatrix type="matrix" values="0 0 0 0 0 0 0 0 0 0 0 0 0 0 0 0 0 0 0.25 0"/>
<feBlend mode="normal" in2="BackgroundImageFix" result="effect1_dropShadow_1_47"/>
<feBlend mode="normal" in="SourceGraphic" in2="effect1_dropShadow_1_47" result="shape"/>
</filter>
</defs>
</svg>
