<svg width="2915" height="2071" viewBox="0 0 2915 2071" fill="none" xmlns="http://www.w3.org/2000/svg">
<g clip-path="url(#clip0_165_9)">
<path d="M1532.52 495.435H1478.05L1445.92 498.228L1412.4 503.815L1373.3 513.591L1339.78 524.765L1310.45 537.335L1279.72 552.698L1254.58 568.061L1232.23 583.425L1207.09 602.978L1186.14 622.531L1173.57 633.705L1163.8 644.878L1148.43 661.638L1130.28 685.382L1110.72 714.712L1096.76 738.455L1078.6 776.165L1066.03 809.685L1054.86 847.395L1046.48 890.692L1042.29 933.989V985.665L1046.48 1026.17L1054.86 1069.47L1064.63 1102.99L1074.41 1130.92L1089.77 1164.44L1105.14 1193.77L1120.5 1217.51L1134.47 1237.07L1148.43 1255.22L1166.59 1274.78L1176.37 1285.95L1188.94 1298.52L1200.11 1308.3L1218.27 1323.66L1243.41 1341.82L1269.94 1358.58L1295.08 1372.54L1321.62 1385.11L1355.14 1397.68L1391.45 1408.86L1424.97 1415.84L1454.3 1420.03L1469.67 1421.43H1539.5L1577.21 1417.24L1624.7 1407.46L1661.01 1396.29L1701.52 1379.53L1736.43 1361.37L1767.16 1341.82L1795.09 1320.87L1800.68 1323.66L1883.08 1406.06L1880.29 1411.65L1866.32 1425.62L1867.72 1431.2L2135.88 1699.36L2145.66 1690.98L2246.22 1590.42L2237.84 1580.65L1976.66 1319.47L1971.07 1320.87L1955.71 1336.23L1950.12 1333.44L1908.22 1291.54L1897.05 1281.76L1866.32 1251.03L1874.7 1239.86L1891.46 1216.12L1909.62 1186.79L1926.38 1154.66L1937.55 1128.13L1952.92 1082.04L1961.3 1045.72L1966.88 1006.62L1968.28 989.855V925.609L1964.09 887.898L1957.11 851.585L1947.33 816.668L1934.76 781.752L1918 745.438L1901.24 716.108L1887.27 695.158L1876.1 679.795L1857.94 657.448L1842.58 640.688L1828.61 625.325L1817.44 615.548L1799.28 598.788L1782.52 586.218L1755.99 568.061L1737.83 556.888L1707.1 540.128L1677.77 527.558L1655.43 519.178L1616.32 508.005L1575.81 499.625L1553.47 496.831L1532.52 495.435ZM1511.57 566.665L1540.9 568.061L1571.62 572.251L1609.33 580.631L1637.27 589.011L1670.79 602.978L1702.91 619.738L1729.45 636.498L1754.59 656.051L1771.35 671.415L1782.52 681.192L1799.28 699.348L1814.65 717.505L1832.8 742.645L1845.37 763.595L1859.34 788.735L1870.51 815.272L1884.48 857.172L1891.46 889.295L1895.65 918.625L1897.05 936.782V978.682L1894.26 1009.41L1888.67 1041.53L1878.89 1079.24L1866.32 1112.76L1849.56 1147.68L1834.2 1172.82L1817.44 1196.56L1802.08 1214.72L1786.71 1231.48L1768.56 1249.64L1753.19 1262.21L1729.45 1280.36L1702.91 1297.12L1672.19 1313.88L1634.48 1329.25L1599.56 1339.02L1566.04 1346.01L1540.9 1348.8L1518.55 1350.2H1493.41L1455.7 1347.4L1423.58 1341.82L1390.06 1333.44L1355.14 1320.87L1320.22 1304.11L1293.69 1288.74L1269.94 1271.98L1254.58 1259.41L1236.42 1244.05L1214.08 1221.7L1201.51 1206.34L1183.35 1182.6L1167.99 1158.85L1148.43 1121.14L1134.47 1086.23L1124.69 1052.71L1117.71 1017.79L1114.91 994.045L1113.52 967.509V952.145L1116.31 913.039L1123.29 871.138L1133.07 836.222L1145.64 802.702L1159.61 773.372L1173.57 749.628L1188.94 727.282L1204.3 707.728L1221.06 689.572L1232.23 677.002L1243.41 667.225L1257.37 654.655L1283.91 635.101L1313.24 616.945L1342.57 601.581L1381.68 586.218L1417.99 576.441L1445.92 570.855L1469.67 568.061L1511.57 566.665Z" fill="white"/>
<path d="M2274.15 1616.96L2268.56 1618.36L2162.42 1724.5L2170.8 1734.28L2204.32 1767.8L2218.28 1776.18L2232.25 1781.77L2237.84 1783.16H2262.98L2279.74 1777.58L2292.31 1770.59L2306.27 1758.02L2318.84 1744.06L2325.83 1730.09L2330.02 1716.12V1692.38L2324.43 1674.22L2316.05 1660.26L2303.48 1646.29L2274.15 1616.96Z" fill="white"/>
<path fill-rule="evenodd" clip-rule="evenodd" d="M1567.42 1387.44H1450.06V1346.53C1450.43 1346.72 1450.85 1346.85 1451.3 1346.89L1479.38 1349.27V1358.1H1538.06V1348.96C1538.38 1348.97 1538.7 1348.95 1539.02 1348.91L1546.79 1347.86C1547.04 1348.01 1547.34 1348.08 1547.65 1348.05L1567.07 1345.85C1567.19 1345.83 1567.3 1345.81 1567.4 1345.77V1358.1H1567.42V1387.44ZM1567.4 1290V1064.69H1618.75C1663.26 1064.69 1699.44 1025.34 1699.44 981.358C1699.44 937.376 1663.26 899.819 1618.75 899.819C1574.24 899.819 1538.06 933.767 1538.06 977.749V1035.35H1479.38V977.749C1479.38 933.767 1443.2 898 1398.69 898C1354.18 898 1318 937.376 1318 981.358C1318 1025.34 1354.18 1064.69 1398.69 1064.69H1450.04V1290H1479.38V1064.69H1538.06V1290H1567.4ZM1398.69 1035.35H1450.04V977.749C1450.04 949.963 1427 929.16 1398.69 929.16C1370.37 929.16 1347.34 953.572 1347.34 981.358C1347.34 1009.14 1370.37 1035.35 1398.69 1035.35ZM1567.4 977.749V1035.35H1618.75C1647.06 1035.35 1670.09 1009.12 1670.09 981.329C1670.09 953.543 1647.06 927.341 1618.75 927.341C1590.43 927.341 1567.4 949.963 1567.4 977.749Z" fill="white"/>
<rect width="169" height="69" rx="34.5" transform="matrix(0.874833 0.484424 0.484424 -0.874833 1006 488.363)" fill="white"/>
<rect x="1869" y="509.868" width="169" height="69" rx="34.5" transform="rotate(-28.9748 1869 509.868)" fill="white"/>
<rect x="1562" y="259" width="169" height="69" rx="34.5" transform="rotate(89.613 1562 259)" fill="white"/>
<rect x="1228" y="1524" width="600" height="69" rx="34.5" fill="white"/>
<rect x="1255" y="1616" width="547" height="69" rx="34.5" fill="white"/>
<path d="M2050 865.5C2050 846.446 2065.45 831 2084.5 831H2184.5C2203.55 831 2219 846.446 2219 865.5C2219 884.554 2203.55 900 2184.5 900H2084.5C2065.45 900 2050 884.554 2050 865.5Z" fill="white"/>
<rect x="1039.27" y="1221.36" width="169" height="69" rx="34.5" transform="rotate(151.025 1039.27 1221.36)" fill="white"/>
<rect width="169" height="69" rx="34.5" transform="matrix(0.874833 0.484424 0.484424 -0.874833 2017 1221.36)" fill="white"/>
<rect x="837" y="831" width="169" height="69" rx="34.5" fill="white"/>
<rect x="1380" y="1708" width="296" height="69" rx="34.5" fill="white"/>
</g>
<defs>
<clipPath id="clip0_165_9">
<rect width="2915" height="2071" fill="white"/>
</clipPath>
</defs>
</svg>
