<svg width="101" height="101" viewBox="0 0 101 101" fill="none" xmlns="http://www.w3.org/2000/svg">
<path d="M46.1866 29.1378H43.7688L42.3429 29.2618L40.855 29.5098L39.1191 29.9438L37.6312 30.4397L36.3293 30.9977L34.9654 31.6796L33.8495 32.3616L32.8576 33.0435L31.7417 33.9115L30.8117 34.7794L30.2538 35.2754L29.8198 35.7713L29.1379 36.5153L28.3319 37.5692L27.464 38.8711L26.844 39.925L26.0381 41.5989L25.4801 43.0868L24.9842 44.7607L24.6122 46.6825L24.4262 48.6044V50.8982L24.6122 52.6961L24.9842 54.6179L25.4181 56.1058L25.8521 57.3457L26.5341 58.8336L27.216 60.1355L27.898 61.1895L28.5179 62.0574L29.1379 62.8633L29.9438 63.7313L30.3778 64.2272L30.9357 64.7852L31.4317 65.2192L32.2376 65.9011L33.3536 66.7071L34.5315 67.451L35.6474 68.071L36.8253 68.6289L38.3132 69.1869L39.9251 69.6828L41.413 69.9928L42.7149 70.1788L43.3968 70.2408H46.4966L48.1705 70.0548L50.2783 69.6208L51.8902 69.1249L53.6881 68.3809L55.2379 67.575L56.6018 66.7071L57.8418 65.7771L58.0897 65.9011L61.7475 69.5589L61.6235 69.8068L61.0035 70.4268L61.0655 70.6748L72.9686 82.5779L73.4026 82.2059L77.8663 77.7423L77.4943 77.3083L65.9012 65.7151L65.6532 65.7771L64.9712 66.4591L64.7233 66.3351L62.8634 64.4752L62.3674 64.0413L61.0035 62.6774L61.3755 62.1814L62.1194 61.1275L62.9254 59.8256L63.6693 58.3997L64.1653 57.2218L64.8472 55.1759L65.2192 53.564L65.4672 51.8282L65.5292 51.0842V48.2324L65.3432 46.5585L65.0332 44.9467L64.5993 43.3968L64.0413 41.8469L63.2974 40.235L62.5534 38.9331L61.9335 38.0032L61.4375 37.3212L60.6316 36.3293L59.9496 35.5853L59.3296 34.9034L58.8337 34.4694L58.0277 33.7255L57.2838 33.1675L56.1059 32.3616L55.2999 31.8656L53.936 31.1217L52.6341 30.5637L51.6422 30.1917L49.9063 29.6958L48.1085 29.3238L47.1165 29.1998L46.1866 29.1378ZM45.2567 32.2996L46.5586 32.3616L47.9225 32.5476L49.5964 32.9195L50.8363 33.2915L52.3242 33.9115L53.7501 34.6554L54.928 35.3994L56.0439 36.2673L56.7878 36.9492L57.2838 37.3832L58.0277 38.1892L58.7097 38.9951L59.5156 40.111L60.0736 41.0409L60.6935 42.1569L61.1895 43.3348L61.8095 45.1946L62.1194 46.6205L62.3054 47.9224L62.3674 48.7284V50.5882L62.2434 51.9521L61.9955 53.378L61.5615 55.0519L61.0035 56.5398L60.2596 58.0897L59.5776 59.2056L58.8337 60.2595L58.1517 61.0655L57.4698 61.8094L56.6638 62.6154L55.9819 63.1733L54.928 63.9793L53.7501 64.7232L52.3862 65.4672L50.7123 66.1491L49.1624 66.5831L47.6745 66.893L46.5586 67.017L45.5667 67.079H44.4507L42.7769 66.955L41.351 66.7071L39.8631 66.3351L38.3132 65.7771L36.7633 65.0332L35.5854 64.3512L34.5315 63.6073L33.8495 63.0493L33.0436 62.3674L32.0516 61.3755L31.4937 60.6935L30.6877 59.6396L30.0058 58.5857L29.1379 56.9118L28.5179 55.3619L28.0839 53.874L27.774 52.3241L27.65 51.2702L27.588 50.0923V49.4103L27.712 47.6745L28.0219 45.8146L28.4559 44.2647L29.0139 42.7768L29.6338 41.4749L30.2538 40.421L30.9357 39.4291L31.6177 38.5611L32.3616 37.7552L32.8576 37.1972L33.3536 36.7633L33.9735 36.2053L35.1514 35.3374L36.4533 34.5314L37.7552 33.8495L39.4911 33.1675L41.103 32.7336L42.3429 32.4856L43.3968 32.3616L45.2567 32.2996Z" fill="#000F24"/>
<path d="M79.1062 78.9202L78.8582 78.9822L74.1466 83.6938L74.5185 84.1278L76.0064 85.6157L76.6264 85.9876L77.2463 86.2356L77.4943 86.2976H78.6102L79.3542 86.0496L79.9121 85.7397L80.5321 85.1817L81.0901 84.5618L81.4 83.9418L81.586 83.3218V82.2679L81.338 81.462L80.9661 80.842L80.4081 80.2221L79.1062 78.9202Z" fill="#000F24"/>
<path fill-rule="evenodd" clip-rule="evenodd" d="M47.7359 68.7323H42.5264V66.6484H42.5254V66.3158H43.8278V67.4299H46.4326V66.3158H47.735V67.4299H47.7359V68.7323ZM47.735 64.4071V54.4059H50.0142C51.9899 54.4059 53.5958 52.6594 53.5958 50.7071C53.5958 48.7548 51.9899 47.0877 50.0142 47.0877C48.0384 47.0877 46.4326 48.5946 46.4326 50.5469V53.1035H43.8278V50.5469C43.8278 48.5946 42.2219 47.007 40.2462 47.007C38.2704 47.007 36.6646 48.7548 36.6646 50.7071C36.6646 52.6594 38.2704 54.4059 40.2462 54.4059H42.5254V64.4071H43.8278V54.4059H46.4326V64.4071H47.735ZM40.2462 53.1035H42.5254V50.5469C42.5254 49.3135 41.503 48.3901 40.2462 48.3901C38.9893 48.3901 37.967 49.4737 37.967 50.7071C37.967 51.9405 38.9893 53.1035 40.2462 53.1035ZM47.735 50.5469V53.1035H50.0142C51.271 53.1035 52.2934 51.9391 52.2934 50.7058C52.2934 49.4724 51.271 48.3094 50.0142 48.3094C48.7573 48.3094 47.735 49.3135 47.735 50.5469Z" fill="#000F24"/>
<rect width="7.50159" height="3.06278" rx="1.53139" transform="matrix(0.874833 0.484424 0.484424 -0.874833 21.9721 29.0903)" fill="#000F24"/>
<rect x="60.279" y="30.0448" width="7.50159" height="3.06278" rx="1.53139" transform="rotate(-28.9748 60.279 30.0448)" fill="#000F24"/>
<rect x="46.6519" y="18.9093" width="7.50159" height="3.06278" rx="1.53139" transform="rotate(89.613 46.6519 18.9093)" fill="#000F24"/>
<rect x="31.8262" y="75.0603" width="26.6329" height="3.06278" rx="1.53139" fill="#000F24"/>
<rect x="33.0246" y="79.144" width="24.2803" height="3.06278" rx="1.53139" fill="#000F24"/>
<path d="M68.3133 45.8307C68.3133 44.9849 68.9989 44.2993 69.8447 44.2993H74.2835C75.1292 44.2993 75.8149 44.9849 75.8149 45.8307V45.8307C75.8149 46.6765 75.1292 47.3621 74.2835 47.3621H69.8447C68.9989 47.3621 68.3133 46.6765 68.3133 45.8307V45.8307Z" fill="#000F24"/>
<rect x="23.4491" y="61.6268" width="7.50159" height="3.06278" rx="1.53139" transform="rotate(151.025 23.4491 61.6268)" fill="#000F24"/>
<rect width="7.50159" height="3.06278" rx="1.53139" transform="matrix(0.874833 0.484424 0.484424 -0.874833 66.8484 61.6268)" fill="#000F24"/>
<rect x="14.4706" y="44.2993" width="7.50159" height="3.06278" rx="1.53139" fill="#000F24"/>
<rect x="38.5733" y="83.2277" width="13.1389" height="3.06278" rx="1.53139" fill="#000F24"/>
</svg>
