<svg width="246" height="101" viewBox="0 0 246 101" fill="none" xmlns="http://www.w3.org/2000/svg">
<path d="M79.19 53.02V35.89C79.19 33.85 80.18 33.01 82.28 33.01C83.3 33.01 84.2 33.4 84.74 34.3L93.35 48.19H93.41V35.38C93.41 33.79 94.31 33.01 95.78 33.01C97.25 33.01 98.15 33.79 98.15 35.38V52.33C98.15 54.28 97.31 55.39 95.24 55.39C93.68 55.39 93.17 55.06 92.54 54.07L83.99 40.57H83.93V53.02C83.93 54.61 83.03 55.39 81.56 55.39C80.09 55.39 79.19 54.61 79.19 53.02ZM105.81 47.14C105.81 49.81 106.92 52.15 109.53 52.15C112.14 52.15 113.25 49.81 113.25 47.14C113.25 44.29 112.08 42.16 109.53 42.16C106.98 42.16 105.81 44.29 105.81 47.14ZM101.43 47.14C101.43 42.52 104.25 38.92 109.53 38.92C114.81 38.92 117.63 42.52 117.63 47.14C117.63 51.52 115.5 55.39 109.53 55.39C103.56 55.39 101.43 51.52 101.43 47.14ZM122.443 53.02L119.233 42.58C119.083 42.1 118.933 41.62 118.933 40.96C118.933 39.82 119.953 38.92 121.063 38.92C122.683 38.92 122.923 39.79 123.223 41.05L125.533 50.65H125.593L127.453 41.92C127.813 40.21 128.173 38.86 130.213 38.92C132.283 38.86 132.703 40.18 133.093 41.92L134.983 50.65H135.043L137.203 41.05C137.473 39.79 137.743 38.92 139.363 38.92C140.473 38.92 141.493 39.82 141.493 40.96C141.493 41.62 141.343 42.1 141.193 42.58L137.983 53.02C137.353 55.09 136.873 55.39 135.133 55.39C133.303 55.39 132.853 54.85 132.403 53.11L130.243 44.5H130.183L128.023 53.11C127.573 54.85 127.123 55.39 125.293 55.39C123.553 55.39 123.073 55.09 122.443 53.02ZM144.173 46.9V35.47C144.173 34 145.133 33.01 146.633 33.01C148.133 33.01 149.093 34 149.093 35.47V47.29C149.093 50.23 150.743 51.55 153.563 51.55C156.383 51.55 158.033 50.23 158.033 47.29V35.47C158.033 34 158.993 33.01 160.493 33.01C161.993 33.01 162.953 34 162.953 35.47V46.9C162.953 52.84 159.293 55.51 153.563 55.51C147.833 55.51 144.173 52.84 144.173 46.9ZM167.522 52.93V35.47C167.522 34 168.482 33.01 169.982 33.01C171.482 33.01 172.442 34 172.442 35.47V42.61L180.182 34.09C180.752 33.49 181.262 33.01 182.132 33.01C183.302 33.01 184.472 33.73 184.472 34.99C184.472 35.74 184.082 36.25 183.662 36.67L178.622 41.98L184.592 51.07C185.042 51.76 185.522 52.39 185.522 53.02C185.522 54.85 184.172 55.39 183.002 55.39C182.012 55.39 181.472 55.15 180.812 54.1L175.142 45.34L172.442 48.04V52.93C172.442 54.4 171.482 55.39 169.982 55.39C168.482 55.39 167.522 54.4 167.522 52.93ZM187.519 53.2V41.11C187.519 39.79 188.119 38.92 189.499 38.92C190.879 38.92 191.479 39.79 191.479 41.11V41.68H191.539C192.769 40.06 194.359 38.92 196.849 38.92C199.489 38.92 202.369 40.24 202.369 44.68V53.2C202.369 54.37 201.889 55.39 200.179 55.39C198.469 55.39 197.989 54.37 197.989 53.2V45.55C197.989 43.78 197.119 42.52 195.229 42.52C193.699 42.52 191.899 43.78 191.899 45.97V53.2C191.899 54.37 191.419 55.39 189.709 55.39C187.999 55.39 187.519 54.37 187.519 53.2ZM209.579 47.14C209.579 49.81 210.689 52.15 213.299 52.15C215.909 52.15 217.019 49.81 217.019 47.14C217.019 44.29 215.849 42.16 213.299 42.16C210.749 42.16 209.579 44.29 209.579 47.14ZM205.199 47.14C205.199 42.52 208.019 38.92 213.299 38.92C218.579 38.92 221.399 42.52 221.399 47.14C221.399 51.52 219.269 55.39 213.299 55.39C207.329 55.39 205.199 51.52 205.199 47.14ZM226.213 53.02L223.003 42.58C222.853 42.1 222.703 41.62 222.703 40.96C222.703 39.82 223.723 38.92 224.833 38.92C226.453 38.92 226.693 39.79 226.993 41.05L229.303 50.65H229.363L231.223 41.92C231.583 40.21 231.943 38.86 233.983 38.92C236.053 38.86 236.473 40.18 236.863 41.92L238.753 50.65H238.813L240.973 41.05C241.243 39.79 241.513 38.92 243.133 38.92C244.243 38.92 245.263 39.82 245.263 40.96C245.263 41.62 245.113 42.1 244.963 42.58L241.753 53.02C241.123 55.09 240.643 55.39 238.903 55.39C237.073 55.39 236.623 54.85 236.173 53.11L234.013 44.5H233.953L231.793 53.11C231.343 54.85 230.893 55.39 229.063 55.39C227.323 55.39 226.843 55.09 226.213 53.02Z" fill="white"/>
<path d="M46.1865 29.1378H43.7687L42.3428 29.2618L40.8549 29.5098L39.1191 29.9438L37.6312 30.4397L36.3293 30.9977L34.9654 31.6796L33.8494 32.3616L32.8575 33.0435L31.7416 33.9115L30.8117 34.7794L30.2537 35.2754L29.8197 35.7713L29.1378 36.5153L28.3318 37.5692L27.4639 38.8711L26.844 39.925L26.038 41.5989L25.4801 43.0868L24.9841 44.7607L24.6121 46.6825L24.4261 48.6044V50.8982L24.6121 52.6961L24.9841 54.6179L25.4181 56.1058L25.852 57.3457L26.534 58.8336L27.2159 60.1355L27.8979 61.1895L28.5178 62.0574L29.1378 62.8633L29.9437 63.7313L30.3777 64.2272L30.9357 64.7852L31.4316 65.2192L32.2376 65.9011L33.3535 66.7071L34.5314 67.451L35.6473 68.071L36.8252 68.6289L38.3131 69.1869L39.925 69.6828L41.4129 69.9928L42.7148 70.1788L43.3967 70.2408H46.4965L48.1704 70.0548L50.2782 69.6208L51.8901 69.1249L53.688 68.3809L55.2379 67.575L56.6018 66.7071L57.8417 65.7771L58.0897 65.9011L61.7474 69.5589L61.6234 69.8068L61.0034 70.4268L61.0654 70.6748L72.9686 82.5779L73.4025 82.2059L77.8662 77.7423L77.4942 77.3083L65.9011 65.7151L65.6531 65.7771L64.9712 66.4591L64.7232 66.3351L62.8633 64.4752L62.3673 64.0413L61.0034 62.6774L61.3754 62.1814L62.1194 61.1275L62.9253 59.8256L63.6693 58.3997L64.1652 57.2218L64.8472 55.1759L65.2191 53.564L65.4671 51.8282L65.5291 51.0842V48.2324L65.3431 46.5585L65.0332 44.9467L64.5992 43.3968L64.0412 41.8469L63.2973 40.235L62.5533 38.9331L61.9334 38.0032L61.4374 37.3212L60.6315 36.3293L59.9495 35.5853L59.3296 34.9034L58.8336 34.4694L58.0277 33.7255L57.2837 33.1675L56.1058 32.3616L55.2999 31.8656L53.936 31.1217L52.6341 30.5637L51.6421 30.1917L49.9063 29.6958L48.1084 29.3238L47.1165 29.1998L46.1865 29.1378ZM45.2566 32.2996L46.5585 32.3616L47.9224 32.5476L49.5963 32.9195L50.8362 33.2915L52.3241 33.9115L53.75 34.6554L54.9279 35.3994L56.0438 36.2673L56.7878 36.9492L57.2837 37.3832L58.0277 38.1892L58.7096 38.9951L59.5156 40.111L60.0735 41.0409L60.6935 42.1569L61.1894 43.3348L61.8094 45.1946L62.1194 46.6205L62.3054 47.9224L62.3673 48.7284V50.5882L62.2434 51.9521L61.9954 53.378L61.5614 55.0519L61.0034 56.5398L60.2595 58.0897L59.5776 59.2056L58.8336 60.2595L58.1517 61.0655L57.4697 61.8094L56.6638 62.6154L55.9818 63.1733L54.9279 63.9793L53.75 64.7232L52.3861 65.4672L50.7122 66.1491L49.1623 66.5831L47.6744 66.893L46.5585 67.017L45.5666 67.079H44.4507L42.7768 66.955L41.3509 66.7071L39.863 66.3351L38.3131 65.7771L36.7632 65.0332L35.5853 64.3512L34.5314 63.6073L33.8494 63.0493L33.0435 62.3674L32.0516 61.3755L31.4936 60.6935L30.6877 59.6396L30.0057 58.5857L29.1378 56.9118L28.5178 55.3619L28.0839 53.874L27.7739 52.3241L27.6499 51.2702L27.5879 50.0923V49.4103L27.7119 47.6745L28.0219 45.8146L28.4558 44.2647L29.0138 42.7768L29.6337 41.4749L30.2537 40.421L30.9357 39.4291L31.6176 38.5611L32.3615 37.7552L32.8575 37.1972L33.3535 36.7633L33.9734 36.2053L35.1513 35.3374L36.4532 34.5314L37.7552 33.8495L39.491 33.1675L41.1029 32.7336L42.3428 32.4856L43.3967 32.3616L45.2566 32.2996Z" fill="white"/>
<path d="M79.1061 78.9202L78.8581 78.9822L74.1465 83.6939L74.5185 84.1278L76.0063 85.6157L76.6263 85.9877L77.2463 86.2357L77.4942 86.2977H78.6102L79.3541 86.0497L79.9121 85.7397L80.532 85.1818L81.09 84.5618L81.4 83.9419L81.5859 83.3219V82.268L81.338 81.462L80.966 80.8421L80.408 80.2221L79.1061 78.9202Z" fill="white"/>
<path fill-rule="evenodd" clip-rule="evenodd" d="M47.7359 68.7323H42.5263V66.6484H42.5254V66.3158H43.8278V67.4299H46.4326V66.3158H47.735V67.4299H47.7359V68.7323ZM47.735 64.4071V54.4059H50.0142C51.9899 54.4059 53.5958 52.6594 53.5958 50.7071C53.5958 48.7548 51.9899 47.0877 50.0142 47.0877C48.0384 47.0877 46.4326 48.5946 46.4326 50.5469V53.1035H43.8278V50.5469C43.8278 48.5946 42.2219 47.007 40.2462 47.007C38.2704 47.007 36.6646 48.7548 36.6646 50.7071C36.6646 52.6594 38.2704 54.4059 40.2462 54.4059H42.5254V64.4071H43.8278V54.4059H46.4326V64.4071H47.735ZM40.2462 53.1035H42.5254V50.5469C42.5254 49.3135 41.503 48.3901 40.2462 48.3901C38.9893 48.3901 37.967 49.4737 37.967 50.7071C37.967 51.9405 38.9893 53.1035 40.2462 53.1035ZM47.735 50.5469V53.1035H50.0142C51.271 53.1035 52.2933 51.9391 52.2933 50.7058C52.2933 49.4724 51.271 48.3094 50.0142 48.3094C48.7573 48.3094 47.735 49.3135 47.735 50.5469Z" fill="white"/>
<rect width="7.50159" height="3.06278" rx="1.53139" transform="matrix(0.874833 0.484424 0.484424 -0.874833 21.9722 29.0903)" fill="white"/>
<rect x="60.2791" y="30.0448" width="7.50159" height="3.06278" rx="1.53139" transform="rotate(-28.9748 60.2791 30.0448)" fill="white"/>
<rect x="46.6519" y="18.9093" width="7.50159" height="3.06278" rx="1.53139" transform="rotate(89.613 46.6519 18.9093)" fill="white"/>
<rect x="31.8262" y="75.0603" width="26.6329" height="3.06278" rx="1.53139" fill="white"/>
<rect x="33.0247" y="79.144" width="24.2803" height="3.06278" rx="1.53139" fill="white"/>
<path d="M68.3132 45.8307C68.3132 44.9849 68.9989 44.2993 69.8446 44.2993H74.2834C75.1292 44.2993 75.8148 44.9849 75.8148 45.8307C75.8148 46.6765 75.1292 47.3621 74.2834 47.3621H69.8446C68.9989 47.3621 68.3132 46.6765 68.3132 45.8307Z" fill="white"/>
<rect x="23.449" y="61.6268" width="7.50159" height="3.06278" rx="1.53139" transform="rotate(151.025 23.449 61.6268)" fill="white"/>
<rect width="7.50159" height="3.06278" rx="1.53139" transform="matrix(0.874833 0.484424 0.484424 -0.874833 66.8484 61.6268)" fill="white"/>
<rect x="14.4705" y="44.2993" width="7.50159" height="3.06278" rx="1.53139" fill="white"/>
<rect x="38.5732" y="83.2277" width="13.1389" height="3.06278" rx="1.53139" fill="white"/>
</svg>
