<svg width="500" height="500" viewBox="0 0 500 500" fill="none" xmlns="http://www.w3.org/2000/svg">
<path d="M229.796 144.972H217.767L210.672 145.589L203.27 146.823L194.633 148.982L187.23 151.45L180.753 154.226L173.967 157.619L168.415 161.012L163.479 164.405L157.927 168.723L153.3 173.041L150.524 175.509L148.365 177.977L144.972 181.678L140.962 186.922L136.644 193.399L133.559 198.643L129.55 206.971L126.774 214.374L124.306 222.702L122.455 232.264L121.53 241.826V253.239L122.455 262.184L124.306 271.746L126.465 279.149L128.624 285.318L132.017 292.721L135.41 299.198L138.803 304.442L141.888 308.76L144.972 312.77L148.982 317.088L151.141 319.556L153.917 322.332L156.385 324.491L160.395 327.884L165.947 331.894L171.808 335.595L177.36 338.68L183.22 341.456L190.623 344.232L198.643 346.7L206.046 348.242L212.523 349.167L215.916 349.476H231.339L239.667 348.55L250.154 346.391L258.174 343.923L267.119 340.222L274.83 336.212L281.616 331.894L287.785 327.267L289.019 327.884L307.218 346.083L306.601 347.316L303.516 350.401L303.825 351.635L363.047 410.857L365.207 409.007L387.415 386.798L385.564 384.639L327.884 326.959L326.65 327.267L323.257 330.66L322.023 330.043L312.77 320.79L310.302 318.63L303.516 311.845L305.367 309.377L309.068 304.133L313.078 297.656L316.78 290.561L319.247 284.701L322.64 274.522L324.491 266.502L325.725 257.866L326.033 254.164V239.975L325.108 231.647L323.566 223.627L321.407 215.916L318.63 208.205L314.929 200.185L311.228 193.708L308.143 189.081L305.675 185.688L301.666 180.753L298.273 177.051L295.188 173.658L292.721 171.499L288.711 167.798L285.009 165.022L279.149 161.012L275.139 158.544L268.353 154.843L261.875 152.067L256.94 150.216L248.303 147.748L239.358 145.898L234.423 145.281L229.796 144.972ZM225.17 160.703L231.647 161.012L238.433 161.937L246.761 163.788L252.93 165.638L260.333 168.723L267.427 172.424L273.288 176.126L278.84 180.444L282.542 183.837L285.009 185.996L288.711 190.006L292.104 194.016L296.113 199.568L298.89 204.195L301.974 209.747L304.442 215.608L307.526 224.861L309.068 231.956L309.994 238.433L310.302 242.443V251.696L309.685 258.482L308.452 265.577L306.292 273.905L303.516 281.308L299.815 289.019L296.422 294.571L292.721 299.815L289.328 303.825L285.935 307.526L281.925 311.536L278.532 314.312L273.288 318.322L267.427 322.023L260.642 325.725L252.313 329.118L244.602 331.277L237.199 332.819L231.647 333.436L226.712 333.745H221.16L212.832 333.128L205.737 331.894L198.334 330.043L190.623 327.267L182.912 323.566L177.051 320.173L171.808 316.471L168.415 313.695L164.405 310.302L159.469 305.367L156.693 301.974L152.684 296.73L149.291 291.487L144.972 283.159L141.888 275.447L139.729 268.044L138.186 260.333L137.569 255.089L137.261 249.229V245.836L137.878 237.199L139.42 227.946L141.579 220.234L144.355 212.832L147.44 206.354L150.524 201.11L153.917 196.175L157.31 191.857L161.012 187.847L163.479 185.071L165.947 182.912L169.031 180.136L174.892 175.817L181.369 171.808L187.847 168.415L196.484 165.022L204.503 162.862L210.672 161.629L215.916 161.012L225.17 160.703Z" fill="#000F24"/>
<path d="M393.584 392.659L392.35 392.967L368.908 416.41L370.759 418.569L378.162 425.972L381.246 427.822L384.331 429.056L385.564 429.365H391.117L394.818 428.131L397.594 426.588L400.679 423.812L403.455 420.728L404.997 417.643L405.922 414.559V409.315L404.688 405.305L402.838 402.221L400.062 399.136L393.584 392.659Z" fill="#000F24"/>
<path fill-rule="evenodd" clip-rule="evenodd" d="M238.084 346.092H212.165V335.724H212.16V334.069H218.64V339.612H231.6V334.069H238.08V339.612H238.084V346.092ZM238.08 324.572V274.813H249.419C259.25 274.813 267.239 266.123 267.239 256.41C267.239 246.696 259.25 238.402 249.419 238.402C239.589 238.402 231.6 245.899 231.6 255.613V268.333H218.64V255.613C218.64 245.899 210.65 238 200.82 238C190.99 238 183 246.696 183 256.41C183 266.123 190.99 274.813 200.82 274.813H212.16V324.572H218.64V274.813H231.6V324.572H238.08ZM200.82 268.333H212.16V255.613C212.16 249.476 207.073 244.882 200.82 244.882C194.567 244.882 189.48 250.273 189.48 256.41C189.48 262.546 194.567 268.333 200.82 268.333ZM238.08 255.613V268.333H249.419C255.673 268.333 260.759 262.54 260.759 256.403C260.759 250.267 255.673 244.48 249.419 244.48C243.166 244.48 238.08 249.476 238.08 255.613Z" fill="#000F24"/>
<rect width="37.3233" height="15.2385" rx="7.61926" transform="matrix(0.874833 0.484424 0.484424 -0.874833 109.32 144.736)" fill="#000F24"/>
<rect x="299.912" y="149.485" width="37.3233" height="15.2385" rx="7.61926" transform="rotate(-28.9748 299.912 149.485)" fill="#000F24"/>
<rect x="232.111" y="94.0813" width="37.3233" height="15.2385" rx="7.61926" transform="rotate(89.613 232.111 94.0813)" fill="#000F24"/>
<rect x="157.596" y="374.15" width="132.653" height="14.7392" rx="7.36961" fill="#000F24"/>
<rect x="164.399" y="393.424" width="120.181" height="15.873" rx="7.93651" fill="#000F24"/>
<path d="M339.002 227.324C339.002 223.254 342.302 219.955 346.372 219.955H370.181C374.251 219.955 377.551 223.254 377.551 227.324C377.551 231.394 374.251 234.694 370.181 234.694H346.372C342.302 234.694 339.002 231.394 339.002 227.324Z" fill="#000F24"/>
<rect x="116.668" y="306.617" width="37.3233" height="15.2385" rx="7.61926" transform="rotate(151.025 116.668 306.617)" fill="#000F24"/>
<rect width="37.3233" height="15.2385" rx="7.61926" transform="matrix(0.874833 0.484424 0.484424 -0.874833 332.597 306.617)" fill="#000F24"/>
<rect x="71.4286" y="219.955" width="37.415" height="14.7392" rx="7.36961" fill="#000F24"/>
<rect x="191.61" y="413.832" width="65.7596" height="14.7392" rx="7.36961" fill="#000F24"/>
</svg>
