<svg width="30" height="30" viewBox="0 0 30 30" fill="none" xmlns="http://www.w3.org/2000/svg">
<path fill-rule="evenodd" clip-rule="evenodd" d="M2.99107 18.75C2.99107 18.2322 3.4108 17.8125 3.92857 17.8125H11.25C11.7678 17.8125 12.1875 18.2322 12.1875 18.75V26.0714C12.1875 26.5892 11.7678 27.0089 11.25 27.0089C10.7322 27.0089 10.3125 26.5892 10.3125 26.0714V21.0134L3.16291 28.1629C2.7968 28.529 2.2032 28.529 1.83708 28.1629C1.47097 27.7967 1.47097 27.2032 1.83708 26.8371L8.98667 19.6875H3.92857C3.4108 19.6875 2.99107 19.2677 2.99107 18.75Z" fill="#808080"/>
<path fill-rule="evenodd" clip-rule="evenodd" d="M27.0089 11.25C27.0089 11.7678 26.5892 12.1875 26.0714 12.1875H18.75C18.2322 12.1875 17.8125 11.7678 17.8125 11.25V3.92857C17.8125 3.4108 18.2322 2.99107 18.75 2.99107C19.2677 2.99107 19.6875 3.4108 19.6875 3.92857V8.98667L26.8371 1.83708C27.2032 1.47097 27.7967 1.47097 28.1629 1.83708C28.529 2.2032 28.529 2.7968 28.1629 3.16291L21.0134 10.3125H26.0714C26.5892 10.3125 27.0089 10.7322 27.0089 11.25Z" fill="#808080"/>
</svg>
