<svg width="35" height="35" viewBox="0 0 35 35" fill="none" xmlns="http://www.w3.org/2000/svg">
<path d="M19.5 9.39167C19.5 8.2871 18.6046 7.39167 17.5 7.39167C16.3954 7.39167 15.5 8.2871 15.5 9.39167H19.5ZM15.5 14.2479C15.5 15.3525 16.3954 16.2479 17.5 16.2479C18.6046 16.2479 19.5 15.3525 19.5 14.2479H15.5ZM6.89792 19.0167L5.18554 17.9833L5.18222 17.9889L6.89792 19.0167ZM5.04584 22.1083L3.33013 21.0805L3.32739 21.0851L5.04584 22.1083ZM6.79584 26.8479L6.16338 28.7453L6.16457 28.7457L6.79584 26.8479ZM28.2771 26.8479L28.9083 28.7457L28.9095 28.7453L28.2771 26.8479ZM30.0271 22.1083L31.7433 21.0814L31.7428 21.0805L30.0271 22.1083ZM28.175 19.0167L29.8907 17.9889L29.8874 17.9833L28.175 19.0167ZM27.2563 12.6292H29.2563L29.2562 12.6237L27.2563 12.6292ZM15.5 9.39167V14.2479H19.5V9.39167H15.5ZM17.5292 0.916672C11.0579 0.916672 5.81667 6.15794 5.81667 12.6292H9.81667C9.81667 8.36707 13.2671 4.91667 17.5292 4.91667V0.916672ZM5.81667 12.6292V15.6917H9.81667V12.6292H5.81667ZM5.81667 15.6917C5.81667 15.9523 5.75623 16.3856 5.62066 16.8772C5.48479 17.3699 5.31588 17.7674 5.18554 17.9833L8.6103 20.05C8.99037 19.4202 9.28085 18.6509 9.47674 17.9405C9.67294 17.229 9.81667 16.4227 9.81667 15.6917H5.81667ZM5.18222 17.9889L3.33014 21.0805L6.76154 23.1361L8.61362 20.0445L5.18222 17.9889ZM3.32739 21.0851C2.4793 22.5095 2.28492 24.1477 2.8307 25.6251C3.37679 27.1033 4.59042 28.221 6.16338 28.7453L7.42829 24.9506C6.90125 24.7749 6.67113 24.4779 6.58285 24.239C6.49425 23.9991 6.47487 23.6176 6.76429 23.1315L3.32739 21.0851ZM6.16457 28.7457C13.5452 31.2008 21.5277 31.2008 28.9083 28.7457L27.6458 24.9502C21.0848 27.1326 13.9881 27.1326 7.4271 24.9502L6.16457 28.7457ZM28.9095 28.7453C32.0986 27.6823 33.4604 23.951 31.7433 21.0814L28.3109 23.1353C28.723 23.824 28.3931 24.7011 27.6446 24.9506L28.9095 28.7453ZM31.7428 21.0805L29.8907 17.9889L26.4593 20.0445L28.3114 23.1361L31.7428 21.0805ZM29.8874 17.9833C29.7585 17.7698 29.5894 17.3704 29.4527 16.8732C29.3163 16.377 29.2563 15.9439 29.2563 15.6917H25.2563C25.2563 16.4165 25.4004 17.223 25.5958 17.9336C25.7908 18.6431 26.0811 19.4177 26.4626 20.05L29.8874 17.9833ZM29.2563 15.6917V12.6292H25.2563V15.6917H29.2563ZM29.2562 12.6237C29.2387 6.18697 23.9723 0.916672 17.5292 0.916672V4.91667C21.761 4.91667 25.2447 8.39637 25.2563 12.6346L29.2562 12.6237ZM20.3563 27.4458C20.3563 29.01 19.0642 30.3021 17.5 30.3021V34.3021C21.2733 34.3021 24.3563 31.2192 24.3563 27.4458H20.3563ZM17.5 30.3021C16.7327 30.3021 16.0083 29.9799 15.4871 29.4587L12.6587 32.2871C13.8875 33.5159 15.6131 34.3021 17.5 34.3021V30.3021ZM15.4871 29.4587C14.9659 28.9375 14.6438 28.2131 14.6438 27.4458H10.6438C10.6438 29.3327 11.4299 31.0583 12.6587 32.2871L15.4871 29.4587Z" fill="#06080F"/>
</svg>
