<svg width="18" height="17" viewBox="0 0 18 17" fill="none" xmlns="http://www.w3.org/2000/svg">
<path d="M12.1621 0C13.4898 0 14.566 1.00449 14.566 2.24359C14.566 2.65662 14.2072 2.99145 13.7647 2.99145C13.3221 2.99145 12.9634 2.65662 12.9634 2.24359C12.9634 1.83056 12.6047 1.49573 12.1621 1.49573H2.54673C2.1042 1.49573 1.74545 1.83056 1.74545 2.24359V14.2094C1.74545 14.6224 2.1042 14.9573 2.54673 14.9573H12.1621C12.6047 14.9573 12.9634 14.6224 12.9634 14.2094V13.4615C12.9634 13.0485 13.3221 12.7137 13.7647 12.7137C14.2072 12.7137 14.566 13.0485 14.566 13.4615V14.2094C14.566 15.4485 13.4898 16.453 12.1621 16.453H2.54673C1.21913 16.453 0.142883 15.4485 0.142883 14.2094V2.24359C0.142883 1.00449 1.21913 0 2.54673 0H12.1621Z" fill="#808080" stroke="#808080" stroke-width="0.000570513"/>
<path fill-rule="evenodd" clip-rule="evenodd" d="M16.0076 5.38528C15.7673 5.16104 15.3778 5.16104 15.1375 5.38528L8.89017 11.2162C8.77206 11.3264 8.69377 11.4683 8.66637 11.6221L8.53456 12.3601L9.32527 12.2371C9.49001 12.2115 9.64209 12.1384 9.76012 12.0283L16.0076 6.1973C16.2479 5.97306 16.2479 5.60951 16.0076 5.38528ZM14.0044 4.32764C14.8705 3.51929 16.2747 3.51928 17.1408 4.32763C18.0068 5.13599 18.0068 6.44658 17.1408 7.25496L10.8934 13.0859C10.539 13.4165 10.083 13.6356 9.58873 13.7125L8.79802 13.8355C7.71341 14.0042 6.77302 13.1266 6.9538 12.1142L7.08559 11.3762C7.16796 10.9149 7.40267 10.4892 7.75692 10.1585L14.0044 4.32764Z" fill="#808080" stroke="#808080" stroke-width="0.000570513"/>
<path d="M3.34802 4.48718C3.34802 4.07415 3.70677 3.73932 4.1493 3.73932H10.5596C11.0021 3.73932 11.3608 4.07415 11.3608 4.48718C11.3608 4.90021 11.0021 5.23505 10.5596 5.23505H4.1493C3.70677 5.23505 3.34802 4.90021 3.34802 4.48718Z" fill="#808080" stroke="#808080" stroke-width="0.000570513"/>
<path d="M3.34802 7.47864C3.34802 7.06559 3.70677 6.73077 4.1493 6.73077H7.35443C7.79698 6.73077 8.15571 7.06559 8.15571 7.47864C8.15571 7.89168 7.79698 8.2265 7.35443 8.2265H4.1493C3.70677 8.2265 3.34802 7.89168 3.34802 7.47864Z" fill="#808080" stroke="#808080" stroke-width="0.000570513"/>
<path d="M3.34802 10.4701C3.34802 10.057 3.70677 9.72223 4.1493 9.72223H4.95059C5.39312 9.72223 5.75187 10.057 5.75187 10.4701C5.75187 10.8831 5.39312 11.218 4.95059 11.218H4.1493C3.70677 11.218 3.34802 10.8831 3.34802 10.4701Z" fill="#808080" stroke="#808080" stroke-width="0.000570513"/>
</svg>
