<svg width="26" height="26" viewBox="0 0 26 26" fill="none" xmlns="http://www.w3.org/2000/svg">
<path d="M11.2284 6.96598L11.8143 8.01585C12.3431 8.96329 12.1309 10.2062 11.2981 11.039C11.2981 11.039 10.288 12.0492 12.1194 13.8807C13.9502 15.7115 14.9611 14.702 14.9611 14.702C15.7939 13.8692 17.0367 13.6569 17.9842 14.1857L19.034 14.7716C20.4648 15.57 20.6337 17.5764 19.3762 18.8339C18.6206 19.5895 17.6949 20.1775 16.6716 20.2163C14.949 20.2816 12.0235 19.8457 9.08895 16.9111C6.15441 13.9765 5.71844 11.0511 5.78375 9.32848C5.82254 8.30519 6.4105 7.37951 7.16613 6.62388C8.42366 5.36636 10.43 5.53532 11.2284 6.96598Z" stroke="#808080" stroke-width="2.05333" stroke-linecap="round"/>
</svg>
