<svg width="35" height="35" viewBox="0 0 35 35" fill="none" xmlns="http://www.w3.org/2000/svg">
<path d="M18.9583 5.83333H12.8333C10.3831 5.83333 9.15796 5.83333 8.22211 6.31018C7.39889 6.72962 6.7296 7.39891 6.31016 8.22213C5.83331 9.15798 5.83331 10.3831 5.83331 12.8333V22.1667C5.83331 24.617 5.83331 25.842 6.31016 26.7779C6.7296 27.6011 7.39889 28.2704 8.22211 28.6898C9.15796 29.1667 10.3831 29.1667 12.8333 29.1667H22.1666C24.6169 29.1667 25.8419 29.1667 26.7779 28.6898C27.6011 28.2704 28.2704 27.6011 28.6898 26.7779C29.1666 25.842 29.1666 24.617 29.1666 22.1667V16.0417M5.83331 23.3333L12.0938 17.0729C12.6633 16.5034 13.5867 16.5034 14.1562 17.0729L18.9583 21.875M18.9583 21.875L23.0313 17.802C23.6008 17.2325 24.5242 17.2325 25.0937 17.802L29.1666 21.875M18.9583 21.875L22.2396 25.1562M26.9791 4.375V8.02083M26.9791 8.02083V11.6667M26.9791 8.02083H23.3333M26.9791 8.02083H30.625" stroke="#06080F" stroke-width="3" stroke-linecap="round" stroke-linejoin="round"/>
</svg>
