<svg width="35" height="35" viewBox="0 0 35 35" fill="none" xmlns="http://www.w3.org/2000/svg">
<g clip-path="url(#clip0_159_135)">
<path fill-rule="evenodd" clip-rule="evenodd" d="M28.9845 31.5H6.0168C4.78062 31.5 3.86777 30.2802 4.33402 29.1585C6.49734 23.9715 11.5796 21 17.4997 21C23.4216 21 28.5039 23.9715 30.6672 29.1585C31.1335 30.2802 30.2206 31.5 28.9845 31.5ZM10.3542 10.5C10.3542 6.63947 13.5607 3.49997 17.4997 3.49997C21.4405 3.49997 24.6453 6.63947 24.6453 10.5C24.6453 14.3605 21.4405 17.5 17.4997 17.5C13.5607 17.5 10.3542 14.3605 10.3542 10.5ZM34.9224 30.8629C33.6237 24.9847 29.5615 20.6464 24.2148 18.6777C27.048 16.4429 28.7004 12.8291 28.0931 8.87238C27.3892 4.28213 23.4913 0.608959 18.7859 0.0734595C12.2906 -0.66679 6.78137 4.28572 6.78137 10.5C6.78137 13.8075 8.34626 16.7544 10.7865 18.6777C5.43801 20.6464 1.37754 24.9847 0.077042 30.8629C-0.394566 32.9997 1.36325 35 3.59445 35H31.405C33.638 35 35.3958 32.9997 34.9224 30.8629Z" fill="#06080F"/>
</g>
<defs>
<clipPath id="clip0_159_135">
<rect width="35" height="35" fill="white"/>
</clipPath>
</defs>
</svg>
