<svg width="24" height="23" viewBox="0 0 24 23" fill="none" xmlns="http://www.w3.org/2000/svg">
<path d="M11.1737 3.03041C11.4355 2.44305 11.5664 2.14937 11.7487 2.05893C11.9071 1.98036 12.093 1.98036 12.2513 2.05893C12.4336 2.14937 12.5646 2.44305 12.8264 3.03041L14.9117 7.70884C14.9892 7.88248 15.0279 7.9693 15.0878 8.03578C15.1407 8.09461 15.2055 8.14167 15.2778 8.17388C15.3596 8.21029 15.4541 8.22027 15.6432 8.24021L20.7371 8.77785C21.3766 8.84534 21.6963 8.87909 21.8387 9.02451C21.9623 9.15082 22.0197 9.32769 21.9939 9.50257C21.9643 9.70387 21.7255 9.91908 21.2478 10.3496L17.4427 13.7787C17.3015 13.9059 17.2308 13.9696 17.1862 14.0471C17.1466 14.1157 17.1218 14.1918 17.1136 14.2705C17.1042 14.3595 17.1239 14.4525 17.1633 14.6385L18.2261 19.6492C18.3596 20.2783 18.4263 20.5928 18.332 20.7731C18.25 20.9298 18.0996 21.039 17.9253 21.0686C17.7247 21.1025 17.4462 20.9419 16.8891 20.6206L12.452 18.0614C12.2874 17.9664 12.205 17.919 12.1175 17.9004C12.04 17.884 11.96 17.884 11.8825 17.9004C11.795 17.919 11.7127 17.9664 11.548 18.0614L7.11095 20.6206C6.5539 20.9419 6.27537 21.1025 6.07474 21.0686C5.90046 21.039 5.75 20.9298 5.66808 20.7731C5.57378 20.5928 5.64049 20.2783 5.77392 19.6492L6.83669 14.6385C6.87614 14.4525 6.89586 14.3595 6.88649 14.2705C6.8782 14.1918 6.85347 14.1157 6.81389 14.0471C6.76916 13.9696 6.69855 13.9059 6.55734 13.7787L2.75231 10.3496C2.27461 9.91908 2.03575 9.70387 2.00605 9.50257C1.98027 9.32769 2.03773 9.15082 2.16138 9.02451C2.30374 8.87909 2.6235 8.84534 3.26302 8.77785L8.35689 8.24021C8.54596 8.22027 8.64048 8.21029 8.72222 8.17388C8.79454 8.14167 8.85929 8.09461 8.91229 8.03578C8.97217 7.9693 9.01087 7.88248 9.08828 7.70884L11.1737 3.03041Z" stroke="#808080" stroke-width="3" stroke-linecap="round" stroke-linejoin="round"/>
</svg>
