<svg width="35" height="35" viewBox="0 0 35 35" fill="none" xmlns="http://www.w3.org/2000/svg">
<path d="M13.8542 13.125V21.875M9.47917 17.5H18.2292M23.3333 14.5833L27.0912 12.3286C28.2478 11.6346 28.8261 11.2876 29.302 11.332C29.7169 11.3707 30.0955 11.585 30.3421 11.9209C30.625 12.3061 30.625 12.9806 30.625 14.3294V20.6706C30.625 22.0194 30.625 22.6939 30.3421 23.0791C30.0955 23.415 29.7169 23.6294 29.302 23.668C28.8261 23.7124 28.2478 23.3654 27.0912 22.6714L23.3333 20.4167M9.04167 26.25H18.6667C20.3001 26.25 21.117 26.25 21.7408 25.9321C22.2896 25.6525 22.7359 25.2063 23.0154 24.6575C23.3333 24.0336 23.3333 23.2168 23.3333 21.5833V13.4167C23.3333 11.7832 23.3333 10.9664 23.0154 10.3425C22.7359 9.79371 22.2896 9.34752 21.7408 9.0679C21.117 8.75 20.3001 8.75 18.6667 8.75H9.04167C7.40819 8.75 6.59143 8.75 5.96753 9.0679C5.41871 9.34752 4.97252 9.79371 4.6929 10.3425C4.375 10.9664 4.375 11.7832 4.375 13.4167V21.5833C4.375 23.2168 4.375 24.0336 4.6929 24.6575C4.97252 25.2063 5.41871 25.6525 5.96753 25.9321C6.59143 26.25 7.40817 26.25 9.04167 26.25Z" stroke="black" stroke-width="3" stroke-linecap="round" stroke-linejoin="round"/>
</svg>
