<svg width="167" height="23" viewBox="0 0 167 23" fill="none" xmlns="http://www.w3.org/2000/svg">
<path d="M0.190002 20.02V2.89001C0.190002 0.85001 1.18 0.0100098 3.28 0.0100098C4.3 0.0100098 5.2 0.40001 5.74 1.30001L14.35 15.19H14.41V2.38001C14.41 0.79001 15.31 0.0100098 16.78 0.0100098C18.25 0.0100098 19.15 0.79001 19.15 2.38001V19.33C19.15 21.28 18.31 22.39 16.24 22.39C14.68 22.39 14.17 22.06 13.54 21.07L4.99 7.57001H4.93V20.02C4.93 21.61 4.03 22.39 2.56 22.39C1.09 22.39 0.190002 21.61 0.190002 20.02Z" fill="white"/>
<path d="M26.8096 14.14C26.8096 16.81 27.9196 19.15 30.5296 19.15C33.1396 19.15 34.2496 16.81 34.2496 14.14C34.2496 11.29 33.0796 9.16001 30.5296 9.16001C27.9796 9.16001 26.8096 11.29 26.8096 14.14ZM22.4296 14.14C22.4296 9.52001 25.2496 5.92001 30.5296 5.92001C35.8096 5.92001 38.6296 9.52001 38.6296 14.14C38.6296 18.52 36.4996 22.39 30.5296 22.39C24.5596 22.39 22.4296 18.52 22.4296 14.14Z" fill="white"/>
<path d="M43.443 20.02L40.233 9.58001C40.083 9.10001 39.933 8.62001 39.933 7.96001C39.933 6.82001 40.953 5.92001 42.063 5.92001C43.683 5.92001 43.923 6.79001 44.223 8.05001L46.533 17.65H46.593L48.453 8.92001C48.813 7.21001 49.173 5.86001 51.213 5.92001C53.283 5.86001 53.703 7.18001 54.093 8.92001L55.983 17.65H56.043L58.203 8.05001C58.473 6.79001 58.743 5.92001 60.363 5.92001C61.473 5.92001 62.493 6.82001 62.493 7.96001C62.493 8.62001 62.343 9.10001 62.193 9.58001L58.983 20.02C58.353 22.09 57.873 22.39 56.133 22.39C54.303 22.39 53.853 21.85 53.403 20.11L51.243 11.5H51.183L49.023 20.11C48.573 21.85 48.123 22.39 46.293 22.39C44.553 22.39 44.073 22.09 43.443 20.02Z" fill="white"/>
<path d="M65.1726 13.9V2.47001C65.1726 1.00001 66.1326 0.0100098 67.6326 0.0100098C69.1326 0.0100098 70.0926 1.00001 70.0926 2.47001V14.29C70.0926 17.23 71.7426 18.55 74.5626 18.55C77.3826 18.55 79.0326 17.23 79.0326 14.29V2.47001C79.0326 1.00001 79.9926 0.0100098 81.4926 0.0100098C82.9926 0.0100098 83.9526 1.00001 83.9526 2.47001V13.9C83.9526 19.84 80.2926 22.51 74.5626 22.51C68.8326 22.51 65.1726 19.84 65.1726 13.9Z" fill="white"/>
<path d="M88.5222 19.93V2.47001C88.5222 1.00001 89.4822 0.0100098 90.9822 0.0100098C92.4822 0.0100098 93.4422 1.00001 93.4422 2.47001V9.61001L101.182 1.09001C101.752 0.490011 102.262 0.0100098 103.132 0.0100098C104.302 0.0100098 105.472 0.730009 105.472 1.99001C105.472 2.74001 105.082 3.25001 104.662 3.67001L99.6222 8.98001L105.592 18.07C106.042 18.76 106.522 19.39 106.522 20.02C106.522 21.85 105.172 22.39 104.002 22.39C103.012 22.39 102.472 22.15 101.812 21.1L96.1422 12.34L93.4422 15.04V19.93C93.4422 21.4 92.4822 22.39 90.9822 22.39C89.4822 22.39 88.5222 21.4 88.5222 19.93Z" fill="white"/>
<path d="M108.519 20.2V8.11001C108.519 6.79001 109.119 5.92001 110.499 5.92001C111.879 5.92001 112.479 6.79001 112.479 8.11001V8.68001H112.539C113.769 7.06001 115.359 5.92001 117.849 5.92001C120.489 5.92001 123.369 7.24001 123.369 11.68V20.2C123.369 21.37 122.889 22.39 121.179 22.39C119.469 22.39 118.989 21.37 118.989 20.2V12.55C118.989 10.78 118.119 9.52001 116.229 9.52001C114.699 9.52001 112.899 10.78 112.899 12.97V20.2C112.899 21.37 112.419 22.39 110.709 22.39C108.999 22.39 108.519 21.37 108.519 20.2Z" fill="white"/>
<path d="M130.579 14.14C130.579 16.81 131.689 19.15 134.299 19.15C136.909 19.15 138.019 16.81 138.019 14.14C138.019 11.29 136.849 9.16001 134.299 9.16001C131.749 9.16001 130.579 11.29 130.579 14.14ZM126.199 14.14C126.199 9.52001 129.019 5.92001 134.299 5.92001C139.579 5.92001 142.399 9.52001 142.399 14.14C142.399 18.52 140.269 22.39 134.299 22.39C128.329 22.39 126.199 18.52 126.199 14.14Z" fill="white"/>
<path d="M147.213 20.02L144.003 9.58001C143.853 9.10001 143.702 8.62001 143.702 7.96001C143.702 6.82001 144.723 5.92001 145.833 5.92001C147.453 5.92001 147.693 6.79001 147.993 8.05001L150.303 17.65H150.363L152.223 8.92001C152.583 7.21001 152.942 5.86001 154.982 5.92001C157.052 5.86001 157.473 7.18001 157.863 8.92001L159.753 17.65H159.812L161.973 8.05001C162.243 6.79001 162.513 5.92001 164.133 5.92001C165.243 5.92001 166.262 6.82001 166.262 7.96001C166.262 8.62001 166.113 9.10001 165.963 9.58001L162.753 20.02C162.123 22.09 161.642 22.39 159.902 22.39C158.072 22.39 157.623 21.85 157.173 20.11L155.012 11.5H154.952L152.792 20.11C152.342 21.85 151.893 22.39 150.062 22.39C148.322 22.39 147.843 22.09 147.213 20.02Z" fill="white"/>
</svg>
