<svg width="212" height="29" viewBox="0 0 212 29" fill="none" xmlns="http://www.w3.org/2000/svg">
<path d="M0.773987 25.492V3.794C0.773987 1.21 2.02799 0.145998 4.68799 0.145998C5.97999 0.145998 7.11999 0.639999 7.80399 1.78L18.71 19.374H18.786V3.148C18.786 1.134 19.926 0.145998 21.788 0.145998C23.65 0.145998 24.79 1.134 24.79 3.148V24.618C24.79 27.088 23.726 28.494 21.104 28.494C19.128 28.494 18.482 28.076 17.684 26.822L6.85399 9.722H6.77799V25.492C6.77799 27.506 5.63799 28.494 3.77599 28.494C1.91399 28.494 0.773987 27.506 0.773987 25.492Z" fill="#06080F"/>
<path d="M34.4922 18.044C34.4922 21.426 35.8982 24.39 39.2042 24.39C42.5102 24.39 43.9162 21.426 43.9162 18.044C43.9162 14.434 42.4342 11.736 39.2042 11.736C35.9742 11.736 34.4922 14.434 34.4922 18.044ZM28.9442 18.044C28.9442 12.192 32.5162 7.632 39.2042 7.632C45.8922 7.632 49.4642 12.192 49.4642 18.044C49.4642 23.592 46.7662 28.494 39.2042 28.494C31.6422 28.494 28.9442 23.592 28.9442 18.044Z" fill="#06080F"/>
<path d="M55.5611 25.492L51.4951 12.268C51.3051 11.66 51.1151 11.052 51.1151 10.216C51.1151 8.772 52.4071 7.632 53.8131 7.632C55.8651 7.632 56.1691 8.734 56.5491 10.33L59.4751 22.49H59.5511L61.9071 11.432C62.3631 9.266 62.8191 7.556 65.4031 7.632C68.0251 7.556 68.5571 9.228 69.0511 11.432L71.4451 22.49H71.5211L74.2571 10.33C74.5991 8.734 74.9411 7.632 76.9931 7.632C78.3991 7.632 79.6911 8.772 79.6911 10.216C79.6911 11.052 79.5011 11.66 79.3111 12.268L75.2451 25.492C74.4471 28.114 73.8391 28.494 71.6351 28.494C69.3171 28.494 68.7471 27.81 68.1771 25.606L65.4411 14.7H65.3651L62.6291 25.606C62.0591 27.81 61.4891 28.494 59.1711 28.494C56.9671 28.494 56.3591 28.114 55.5611 25.492Z" fill="#06080F"/>
<path d="M83.0853 17.74V3.262C83.0853 1.4 84.3013 0.145998 86.2013 0.145998C88.1013 0.145998 89.3173 1.4 89.3173 3.262V18.234C89.3173 21.958 91.4073 23.63 94.9793 23.63C98.5513 23.63 100.641 21.958 100.641 18.234V3.262C100.641 1.4 101.857 0.145998 103.757 0.145998C105.657 0.145998 106.873 1.4 106.873 3.262V17.74C106.873 25.264 102.237 28.646 94.9793 28.646C87.7213 28.646 83.0853 25.264 83.0853 17.74Z" fill="#06080F"/>
<path d="M112.661 25.378V3.262C112.661 1.4 113.877 0.145998 115.777 0.145998C117.677 0.145998 118.893 1.4 118.893 3.262V12.306L128.697 1.514C129.419 0.754 130.065 0.145998 131.167 0.145998C132.649 0.145998 134.131 1.058 134.131 2.654C134.131 3.604 133.637 4.25 133.105 4.782L126.721 11.508L134.283 23.022C134.853 23.896 135.461 24.694 135.461 25.492C135.461 27.81 133.751 28.494 132.269 28.494C131.015 28.494 130.331 28.19 129.495 26.86L122.313 15.764L118.893 19.184V25.378C118.893 27.24 117.677 28.494 115.777 28.494C113.877 28.494 112.661 27.24 112.661 25.378Z" fill="#06080F"/>
<path d="M137.991 25.72V10.406C137.991 8.734 138.751 7.632 140.499 7.632C142.247 7.632 143.007 8.734 143.007 10.406V11.128H143.083C144.641 9.076 146.655 7.632 149.809 7.632C153.153 7.632 156.801 9.304 156.801 14.928V25.72C156.801 27.202 156.193 28.494 154.027 28.494C151.861 28.494 151.253 27.202 151.253 25.72V16.03C151.253 13.788 150.151 12.192 147.757 12.192C145.819 12.192 143.539 13.788 143.539 16.562V25.72C143.539 27.202 142.931 28.494 140.765 28.494C138.599 28.494 137.991 27.202 137.991 25.72Z" fill="#06080F"/>
<path d="M165.934 18.044C165.934 21.426 167.34 24.39 170.646 24.39C173.952 24.39 175.358 21.426 175.358 18.044C175.358 14.434 173.876 11.736 170.646 11.736C167.416 11.736 165.934 14.434 165.934 18.044ZM160.386 18.044C160.386 12.192 163.958 7.632 170.646 7.632C177.334 7.632 180.906 12.192 180.906 18.044C180.906 23.592 178.208 28.494 170.646 28.494C163.084 28.494 160.386 23.592 160.386 18.044Z" fill="#06080F"/>
<path d="M187.002 25.492L182.936 12.268C182.746 11.66 182.556 11.052 182.556 10.216C182.556 8.772 183.848 7.632 185.254 7.632C187.306 7.632 187.61 8.734 187.99 10.33L190.916 22.49H190.992L193.348 11.432C193.804 9.266 194.26 7.556 196.844 7.632C199.466 7.556 199.998 9.228 200.492 11.432L202.886 22.49H202.962L205.698 10.33C206.04 8.734 206.382 7.632 208.434 7.632C209.84 7.632 211.132 8.772 211.132 10.216C211.132 11.052 210.942 11.66 210.752 12.268L206.686 25.492C205.888 28.114 205.28 28.494 203.076 28.494C200.758 28.494 200.188 27.81 199.618 25.606L196.882 14.7H196.806L194.07 25.606C193.5 27.81 192.93 28.494 190.612 28.494C188.408 28.494 187.8 28.114 187.002 25.492Z" fill="#06080F"/>
</svg>
