<svg xmlns="http://www.w3.org/2000/svg" xmlns:xlink="http://www.w3.org/1999/xlink" width="500" zoomAndPan="magnify" viewBox="0 0 375 374.999991" height="500" preserveAspectRatio="xMidYMid meet" version="1.0"><defs><clipPath id="b12c796e3a"><path d="M 85.527344 47.332031 L 289.527344 47.332031 L 289.527344 327.832031 L 85.527344 327.832031 Z M 85.527344 47.332031 " clip-rule="nonzero"/></clipPath></defs><g clip-path="url(#b12c796e3a)"><path fill="#004aad" d="M 150.230469 47.992188 C 149.65625 48.042969 149.085938 48.191406 148.539062 48.414062 L 116.484375 54.425781 C 113.457031 54.972656 111.269531 57.601562 111.269531 60.683594 L 111.269531 96.238281 C 111.269531 121.34375 102.457031 145.304688 87.679688 160.300781 C 86.488281 161.492188 85.84375 163.105469 85.84375 164.769531 L 85.84375 321.300781 C 85.84375 324.828125 88.675781 327.65625 92.199219 327.65625 L 282.796875 327.65625 C 286.324219 327.65625 289.15625 324.828125 289.15625 321.300781 L 289.15625 164.671875 C 289.15625 163.007812 288.507812 161.417969 287.34375 160.226562 C 272.394531 144.980469 263.777344 121.664062 263.777344 96.238281 L 263.777344 60.683594 C 263.777344 57.601562 261.617188 54.972656 258.613281 54.425781 L 227.453125 48.789062 L 226.558594 48.414062 C 224.519531 47.621094 222.210938 47.992188 220.472656 49.261719 C 220.324219 49.359375 220.175781 49.433594 220.050781 49.535156 L 219.554688 49.90625 C 215.410156 53.132812 202.050781 61.277344 187.550781 61.277344 C 172.972656 61.277344 159.515625 53.058594 155.445312 49.855469 C 155.246094 49.707031 155.070312 49.558594 155.046875 49.558594 C 153.707031 48.367188 151.941406 47.820312 150.230469 47.992188 Z M 156.113281 64.851562 C 163.8125 69.371094 173.917969 73.992188 187.550781 73.992188 C 201.179688 73.992188 211.285156 69.371094 218.984375 64.851562 C 219.035156 65.796875 219.332031 66.667969 219.332031 67.632812 C 219.332031 68.949219 219.257812 70.242188 219.15625 71.507812 C 218.4375 79.976562 215.359375 87.546875 210.765625 93.457031 C 210.492188 93.855469 210.242188 94.300781 209.945312 94.648438 C 209.25 95.46875 208.53125 96.265625 207.785156 97.007812 C 207.785156 97.007812 207.761719 97.035156 207.761719 97.035156 C 207.191406 97.605469 206.570312 98.125 205.972656 98.648438 C 205.726562 98.871094 205.476562 99.09375 205.203125 99.316406 C 204.804688 99.640625 204.382812 99.9375 203.960938 100.238281 C 203.488281 100.585938 203.019531 100.933594 202.546875 101.230469 C 202.25 101.402344 201.949219 101.550781 201.675781 101.726562 C 201.03125 102.125 200.410156 102.496094 199.742188 102.820312 C 199.492188 102.96875 199.195312 103.066406 198.921875 103.191406 C 198.25 103.515625 197.554688 103.835938 196.859375 104.085938 C 196.539062 104.210938 196.191406 104.285156 195.84375 104.382812 C 195.171875 104.605469 194.5 104.855469 193.804688 105.003906 C 192.8125 105.253906 191.820312 105.449219 190.777344 105.574219 C 189.710938 105.699219 188.640625 105.773438 187.550781 105.773438 C 186.457031 105.773438 185.390625 105.699219 184.320312 105.574219 C 184.320312 105.574219 184.296875 105.574219 184.296875 105.574219 C 183.277344 105.449219 182.285156 105.253906 181.292969 105.003906 C 180.449219 104.804688 179.628906 104.53125 178.785156 104.257812 C 178.609375 104.183594 178.4375 104.160156 178.261719 104.085938 C 177.269531 103.738281 176.324219 103.316406 175.382812 102.867188 C 174.488281 102.421875 173.621094 101.898438 172.773438 101.378906 C 172.699219 101.328125 172.652344 101.304688 172.601562 101.28125 C 171.882812 100.808594 171.210938 100.285156 170.515625 99.789062 C 170.316406 99.640625 170.117188 99.515625 169.945312 99.367188 C 169.472656 98.996094 169.027344 98.574219 168.554688 98.152344 C 168.179688 97.804688 167.785156 97.480469 167.4375 97.132812 C 167.113281 96.808594 166.816406 96.460938 166.519531 96.140625 C 166.070312 95.667969 165.625 95.222656 165.203125 94.722656 C 164.65625 94.078125 164.234375 93.332031 163.738281 92.636719 C 162.867188 91.445312 161.949219 90.28125 161.179688 88.9375 C 160.035156 86.902344 159.070312 84.742188 158.273438 82.457031 C 157.851562 81.316406 157.503906 80.148438 157.207031 78.957031 C 157.179688 78.882812 157.15625 78.808594 157.132812 78.707031 C 156.859375 77.617188 156.609375 76.472656 156.410156 75.332031 C 156.289062 74.636719 156.238281 73.941406 156.140625 73.246094 C 156.089844 72.699219 155.988281 72.152344 155.941406 71.605469 C 155.839844 70.316406 155.765625 68.976562 155.765625 67.632812 C 155.765625 66.667969 156.0625 65.820312 156.113281 64.851562 Z M 143.003906 162.386719 L 174.785156 162.386719 L 181.144531 168.742188 L 181.144531 200.527344 L 149.359375 219.597656 L 149.359375 225.953125 L 181.144531 225.953125 L 181.144531 238.664062 L 136.648438 238.664062 L 136.648438 213.238281 L 168.429688 194.167969 L 168.429688 175.101562 L 149.359375 175.101562 L 149.359375 181.457031 L 136.648438 181.457031 L 136.648438 168.742188 Z M 200.210938 162.386719 L 231.996094 162.386719 L 238.351562 168.742188 L 238.351562 194.167969 L 231.996094 200.527344 L 238.351562 206.882812 L 238.351562 232.308594 L 231.996094 238.664062 L 200.210938 238.664062 L 193.855469 232.308594 L 193.855469 219.597656 L 206.570312 219.597656 L 206.570312 225.953125 L 225.640625 225.953125 L 225.640625 206.882812 L 212.925781 206.882812 L 212.925781 194.167969 L 225.640625 194.167969 L 225.640625 175.101562 L 206.570312 175.101562 L 206.570312 181.457031 L 193.855469 181.457031 L 193.855469 168.742188 Z M 200.210938 162.386719 " fill-opacity="1" fill-rule="nonzero"/></g></svg>