<svg width="190" height="400" viewBox="0 0 190 400" fill="none" xmlns="http://www.w3.org/2000/svg">
<path d="M140.6 5H49.3C27 5 8.90002 23.1 8.90002 45.4V354.6C8.90002 376.9 26.9 395 49.3 395.1H140.6C162.9 395 181 377 181.1 354.6V45.4C180.9 23.1 162.9 5.1 140.6 5Z" fill="white"/>
<path d="M117.9 76.4V77.7C120.7 79.3 122 80.7 124.9 82.4C132.4 87.1 141.6 95.4 140.3 124.1C142.4 130.3 143.3 142.6 145.2 146.6C149.1 154.3 151.6 159.2 152.8 166.6C152.8 166.6 154 177.9 155.3 178.7C163 180.4 160.8 181.2 161.9 182.5C162.9 183.8 167.5 184 167.5 188.1C168.9 190.1 170.1 192.3 171.1 194.5V45.4C171.1 28.4 157.4 14.6 140.4 14.6H110.9C115.6 16.3 118.3 18.3 119.9 21.4C123.7 21.7 128.3 30.3 121.2 42.9C124.3 45 121.9 48.1 119.6 51.8C118.9 52.9 118.2 55 116.2 54.9C113.6 60.5 110.3 66.1 107.8 66.4C107.1 67.3 106.5 69.7 107.7 70.9C111.3 72.1 114.8 74 117.9 76.4ZM171.4 214.9C165.8 229 149.8 235.8 135.7 230.2C121.6 224.6 114.8 208.6 120.4 194.5C123.7 186.3 130.7 180.2 139.3 178C136.1 170.1 129.4 157.2 127.5 152.9C125.5 148.6 121.1 122.5 120.1 117.4C119.9 116.2 108.3 124.2 108.3 124.6C108.3 125.1 99.6 146.3 99.2 147.5C98.9 148.6 99 151.1 99 151.1C99 151.1 102.9 151.6 105.2 158.5C107.5 165.4 114.3 190.6 114.3 190.6C114.3 190.6 112.5 192.6 112.3 192.4C121 221.5 117.9 234 121.8 242.5C126.7 254.6 128 253 132.3 263.1C135.3 270.5 138.6 299.4 139.8 300.7C144.5 306.7 147 311.3 147 314.6C147 317.9 143 327.9 144.5 333.8C145.4 337.2 145.9 344.8 147.4 346.3C148.9 347.8 148.9 349.2 148.1 350.4C147.8 350.9 147.6 351.4 147.6 352C150.2 361.1 158.5 376.7 145 384.9H145.3C160.3 382.6 171.4 369.6 171.3 354.4V214.9H171.4Z" fill="#DA1A32"/>
<path d="M136.7 348.6C131.8 344.2 135.1 342.3 134.9 340.6C131.7 327.1 120.9 318.9 126.5 314.5C125.1 310 122.4 304.5 122.5 304.5C105.8 295 91.6 279.3 89.2 277C86.8 274.7 81.3 270.6 80.3 268C76.3 264.3 56.6 236.4 52 226L44 224.9C40.3 210.1 28.2 197.5 27.9 182.7C27.8 177.1 30.4 165 31.5 162.6C32.5 160.2 37.1 156.2 37.1 156.2V152.2C19.6 152.7 24.7 150.9 21.7 144.2C19.6 139.5 21.1 138.5 21.8 135.2C24.1 125.5 31.9 110.7 35.1 104C36.1 100.6 39.5 92.4 39.5 92.4C52.5 66 57.3 67.9 72.8 66.4L73.6 65.2C89.1 64.5 86.6 63.4 88.8 48.4C86.5 49.3 85.9 43.7 85.9 43.7C84.6 35.2 88.2 36.8 89.9 36.7C90.2 22.8 91.7 18.4 101.7 14.5H49.3C32.3 14.5 18.5 28.3 18.5 45.3V354.5C18.5 371.5 32.3 385.4 49.3 385.4H140.6C130.1 379.7 136.3 369 136.7 348.6Z" fill="#00438C"/>
<path d="M66.6 366V310H77.4C83.7 310 87.6 313.4 87.6 321.2V329.5C87.6 334.6 86 337.2 83.9 338.4C86.1 339.9 87.6 342.4 87.6 346.7V354.8C87.6 362.5 83.5 365.9 77.4 365.9L66.6 366ZM74 341.7V359H76.8C79.4 359 80 357.6 80 355V345.5C80 342.7 79.1 341.7 76.7 341.7H74ZM74 317.1V335.6H76.8C79.4 335.6 80.1 334.7 80.1 331.6V320.8C80.1 318.2 79.3 317 76.9 317L74 317.1ZM105.2 354.6H98.4L97.5 366H90L96.8 310H107.5L114 366H106L105.2 354.6ZM101.8 316.3H101.4C100.9 323.1 100 334.9 99.7 338.6L98.8 348.2H104.6L103.7 338.6C103.5 334.8 102.4 323.1 101.8 316.3ZM44.4 366H37.9V310H48.2L56.5 355.8C55.8 344.8 54.9 331.6 54.9 320.3V310H61.4V366H51.9L43.6 321.2C44.1 331.6 44.3 339.8 44.3 348.4L44.4 366Z" fill="white"/>
</svg>
