<svg xmlns="http://www.w3.org/2000/svg" xmlns:xlink="http://www.w3.org/1999/xlink" width="500" zoomAndPan="magnify" viewBox="0 0 375 374.999991" height="500" preserveAspectRatio="xMidYMid meet" version="1.0"><defs><clipPath id="f54e384ae8"><path d="M 207 280 L 309.90625 280 L 309.90625 314 L 207 314 Z M 207 280 " clip-rule="nonzero"/></clipPath><clipPath id="f9c87ba042"><path d="M 65.40625 280 L 168 280 L 168 314 L 65.40625 314 Z M 65.40625 280 " clip-rule="nonzero"/></clipPath></defs><g clip-path="url(#f54e384ae8)"><path fill="#004aad" d="M 259.644531 290.757812 C 243.144531 293.1875 226.558594 294.449219 209.882812 294.539062 L 207.871094 294.59375 L 211.414062 311.601562 C 219.65625 312.941406 227.949219 313.703125 236.296875 313.890625 C 244.644531 314.078125 252.964844 313.691406 261.257812 312.722656 C 269.550781 311.757812 277.738281 310.222656 285.820312 308.121094 C 293.898438 306.019531 301.796875 303.367188 309.507812 300.167969 L 306.792969 280.222656 C 291.273438 284.613281 275.554688 288.125 259.644531 290.757812 Z M 259.644531 290.757812 " fill-opacity="1" fill-rule="nonzero"/></g><path fill="#004aad" d="M 94.214844 67.921875 C 102.285156 72.375 136.742188 77.980469 187.5 77.980469 C 238.257812 77.980469 272.695312 72.367188 280.785156 67.921875 C 272.695312 63.460938 238.257812 57.859375 187.5 57.859375 C 136.742188 57.859375 102.304688 63.460938 94.214844 67.921875 Z M 94.214844 67.921875 " fill-opacity="1" fill-rule="nonzero"/><path fill="#004aad" d="M 182.46875 107.183594 C 184.148438 107.183594 185.792969 107.21875 187.5 107.21875 C 189.207031 107.21875 190.875 107.195312 192.5625 107.183594 C 190.957031 105.863281 189.28125 104.640625 187.53125 103.523438 C 185.769531 104.640625 184.082031 105.859375 182.46875 107.183594 Z M 182.46875 107.183594 " fill-opacity="1" fill-rule="nonzero"/><path fill="#004aad" d="M 205.4375 106.96875 C 249.132812 105.769531 277.425781 100.386719 281.941406 96.363281 L 281.941406 76.914062 C 259.292969 86.507812 201.339844 87.125 187.5 87.125 C 173.65625 87.125 115.707031 86.527344 93.054688 76.933594 L 93.054688 96.367188 C 97.53125 100.390625 125.835938 105.789062 169.5625 106.984375 C 174.078125 101.84375 179.316406 97.585938 185.269531 94.210938 C 185.960938 93.820312 186.707031 93.628906 187.5 93.628906 C 188.292969 93.628906 189.039062 93.820312 189.730469 94.210938 C 195.683594 97.582031 200.917969 101.832031 205.4375 106.96875 Z M 205.4375 106.96875 " fill-opacity="1" fill-rule="nonzero"/><path fill="#004aad" d="M 258.164062 281.738281 C 274.160156 279.085938 289.957031 275.53125 305.550781 271.074219 L 283.070312 105.695312 C 268.175781 112.554688 235.652344 115.019531 212.023438 115.894531 C 212.570312 116.808594 213.140625 117.648438 213.667969 118.605469 C 216.550781 123.875 218.730469 129.417969 220.207031 135.238281 C 221.6875 141.058594 222.417969 146.96875 222.398438 152.972656 C 222.398438 153.273438 222.371094 153.570312 222.3125 153.867188 C 222.253906 154.160156 222.164062 154.445312 222.050781 154.722656 C 221.9375 155 221.796875 155.265625 221.628906 155.515625 C 221.460938 155.761719 221.273438 155.996094 221.058594 156.207031 C 220.847656 156.417969 220.617188 156.609375 220.367188 156.777344 C 220.117188 156.941406 219.851562 157.082031 219.574219 157.199219 C 219.296875 157.3125 219.011719 157.398438 218.71875 157.457031 C 218.421875 157.515625 218.125 157.546875 217.824219 157.546875 C 217.527344 157.546875 217.226562 157.515625 216.933594 157.457031 C 216.640625 157.398438 216.355469 157.3125 216.078125 157.199219 C 215.796875 157.082031 215.535156 156.941406 215.285156 156.777344 C 215.035156 156.609375 214.804688 156.417969 214.59375 156.207031 C 214.378906 155.996094 214.191406 155.761719 214.023438 155.515625 C 213.855469 155.265625 213.714844 155 213.601562 154.722656 C 213.488281 154.445312 213.398438 154.160156 213.339844 153.867188 C 213.28125 153.570312 213.253906 153.273438 213.253906 152.972656 C 213.269531 147.742188 212.636719 142.589844 211.347656 137.519531 C 210.0625 132.449219 208.164062 127.617188 205.65625 123.027344 C 204.34375 120.648438 202.863281 118.375 201.21875 116.207031 C 195.210938 116.335938 190.367188 116.363281 187.5 116.363281 C 184.632812 116.363281 179.78125 116.335938 173.78125 116.207031 C 172.140625 118.375 170.664062 120.648438 169.351562 123.027344 C 166.84375 127.617188 164.945312 132.449219 163.660156 137.523438 C 162.375 142.59375 161.738281 147.746094 161.753906 152.976562 C 161.753906 153.277344 161.726562 153.574219 161.667969 153.871094 C 161.609375 154.164062 161.523438 154.449219 161.40625 154.726562 C 161.292969 155.003906 161.152344 155.269531 160.984375 155.519531 C 160.816406 155.769531 160.628906 156 160.414062 156.210938 C 160.203125 156.421875 159.972656 156.613281 159.722656 156.78125 C 159.472656 156.945312 159.210938 157.085938 158.933594 157.203125 C 158.65625 157.316406 158.371094 157.40625 158.074219 157.460938 C 157.78125 157.519531 157.484375 157.550781 157.183594 157.550781 C 156.882812 157.550781 156.585938 157.519531 156.289062 157.460938 C 155.996094 157.40625 155.710938 157.316406 155.433594 157.203125 C 155.15625 157.085938 154.890625 156.945312 154.640625 156.78125 C 154.390625 156.613281 154.160156 156.421875 153.949219 156.210938 C 153.738281 156 153.546875 155.769531 153.378906 155.519531 C 153.214844 155.269531 153.074219 155.003906 152.957031 154.726562 C 152.84375 154.449219 152.757812 154.164062 152.699219 153.871094 C 152.640625 153.574219 152.609375 153.277344 152.609375 152.976562 C 152.59375 146.96875 153.324219 141.054688 154.804688 135.230469 C 156.285156 129.410156 158.464844 123.863281 161.347656 118.589844 C 161.878906 117.640625 162.441406 116.761719 162.996094 115.882812 C 139.335938 115.019531 106.8125 112.550781 91.929688 105.667969 L 69.464844 270.980469 C 85.164062 275.484375 101.070312 279.070312 117.183594 281.738281 C 133.273438 284.089844 149.445312 285.308594 165.703125 285.394531 L 169.03125 285.480469 L 183.007812 218.464844 L 183.007812 218.414062 C 183.0625 218.269531 183.121094 218.128906 183.191406 217.992188 C 183.304688 217.570312 183.476562 217.171875 183.703125 216.800781 C 183.863281 216.601562 184.042969 216.421875 184.234375 216.253906 C 184.445312 215.996094 184.683594 215.765625 184.949219 215.558594 C 185.300781 215.355469 185.675781 215.203125 186.074219 215.101562 C 186.230469 215.023438 186.390625 214.957031 186.554688 214.898438 C 186.859375 214.867188 187.164062 214.867188 187.46875 214.898438 C 187.773438 214.867188 188.078125 214.867188 188.382812 214.898438 C 188.503906 214.925781 188.597656 215.007812 188.714844 215.039062 C 189.171875 215.15625 189.597656 215.339844 189.996094 215.585938 C 190.226562 215.769531 190.433594 215.972656 190.617188 216.195312 C 190.84375 216.382812 191.050781 216.59375 191.234375 216.824219 C 191.457031 217.1875 191.621094 217.578125 191.734375 217.988281 C 191.785156 218.148438 191.890625 218.273438 191.925781 218.445312 L 191.925781 218.492188 L 205.972656 285.496094 L 209.632812 285.398438 C 225.894531 285.3125 242.070312 284.089844 258.164062 281.738281 Z M 258.164062 281.738281 " fill-opacity="1" fill-rule="nonzero"/><g clip-path="url(#f9c87ba042)"><path fill="#004aad" d="M 115.707031 290.757812 C 99.679688 288.105469 83.851562 284.558594 68.21875 280.128906 L 65.476562 300.164062 C 73.1875 303.363281 81.085938 306.011719 89.164062 308.117188 C 97.246094 310.21875 105.429688 311.753906 113.722656 312.71875 C 122.015625 313.6875 130.335938 314.074219 138.683594 313.886719 C 147.03125 313.699219 155.324219 312.9375 163.566406 311.597656 L 167.113281 294.582031 L 165.445312 294.535156 C 148.777344 294.445312 132.199219 293.1875 115.707031 290.757812 Z M 115.707031 290.757812 " fill-opacity="1" fill-rule="nonzero"/></g></svg>