<svg xmlns="http://www.w3.org/2000/svg" xmlns:xlink="http://www.w3.org/1999/xlink" width="500" zoomAndPan="magnify" viewBox="0 0 375 374.999991" height="500" preserveAspectRatio="xMidYMid meet" version="1.0"><defs><clipPath id="34528cceeb"><path d="M 57.375 57.375 L 317.625 57.375 L 317.625 317.625 L 57.375 317.625 Z M 57.375 57.375 " clip-rule="nonzero"/></clipPath></defs><g clip-path="url(#34528cceeb)"><path fill="#004aad" d="M 185.171875 303.671875 L 118.949219 303.671875 L 122.4375 317.613281 L 185.171875 317.613281 Z M 189.820312 303.671875 L 189.820312 317.613281 L 252.554688 317.613281 L 256.039062 303.671875 Z M 312.96875 299.644531 L 286.398438 302.960938 L 289.730469 312.96875 L 312.96875 309.707031 Z M 62.023438 299.644531 L 88.59375 302.960938 L 85.257812 312.96875 L 62.023438 309.707031 Z M 189.820312 103.796875 C 207.445312 103.0625 222.9375 94.027344 234.523438 81.984375 L 280.4375 99.199219 C 299.027344 164.261719 308.320312 210.730469 317.613281 294.378906 L 280.4375 299.027344 C 271.144531 266.496094 271.144531 243.777344 261.847656 196.789062 C 261.847656 234.484375 266.496094 285.085938 257.203125 299.027344 L 189.820312 299.027344 Z M 185.171875 299.027344 L 117.789062 299.027344 C 108.496094 285.085938 113.140625 234.484375 113.140625 196.789062 C 103.847656 243.777344 103.847656 266.496094 94.554688 299.027344 L 57.375 294.378906 C 66.671875 210.730469 75.964844 164.261719 94.554688 99.199219 L 140.472656 81.984375 C 152.21875 94.027344 167.558594 103.0625 185.171875 103.796875 Z M 134.125 238.050781 L 124.828125 275.230469 L 129.335938 276.351562 L 138.632812 239.175781 Z M 236.359375 239.175781 L 245.652344 276.351562 L 250.160156 275.230469 L 240.867188 238.050781 Z M 229.320312 80.613281 L 220.027344 57.375 C 210.730469 66.671875 196.789062 71.316406 187.496094 71.316406 C 178.203125 71.316406 164.261719 66.671875 154.964844 57.375 L 145.671875 80.613281 C 154.964844 89.90625 168.894531 99.199219 187.496094 99.199219 C 206.085938 99.199219 220.027344 89.90625 229.320312 80.613281 Z M 229.320312 80.613281 " fill-opacity="1" fill-rule="evenodd"/></g></svg>