<svg xmlns="http://www.w3.org/2000/svg" xmlns:xlink="http://www.w3.org/1999/xlink" width="500" zoomAndPan="magnify" viewBox="0 0 375 374.999991" height="500" preserveAspectRatio="xMidYMid meet" version="1.0"><path fill="#004aad" d="M 263.242188 254.9375 L 229.996094 254.9375 L 229.996094 237.800781 C 229.996094 236.054688 228.589844 234.648438 226.84375 234.648438 C 225.09375 234.648438 223.6875 236.054688 223.6875 237.800781 L 223.6875 254.9375 L 207.578125 254.9375 L 207.578125 237.800781 C 207.578125 236.054688 206.171875 234.648438 204.425781 234.648438 C 202.679688 234.648438 201.273438 236.054688 201.273438 237.800781 L 201.273438 254.9375 L 185.238281 254.9375 L 185.238281 237.800781 C 185.238281 236.054688 183.792969 234.648438 182.046875 234.648438 C 180.300781 234.648438 178.894531 236.054688 178.894531 237.800781 L 178.894531 254.9375 L 162.785156 254.9375 L 162.785156 237.800781 C 162.785156 236.054688 161.378906 234.648438 159.628906 234.648438 C 157.882812 234.648438 156.476562 236.054688 156.476562 237.800781 L 156.476562 254.9375 L 140.441406 254.9375 L 140.441406 237.800781 C 140.441406 236.054688 139 234.648438 137.25 234.648438 C 135.539062 234.648438 134.097656 236.054688 134.097656 237.800781 L 134.097656 254.9375 L 118.023438 254.9375 L 118.023438 237.800781 C 118.023438 236.054688 116.582031 234.648438 114.832031 234.648438 C 113.085938 234.648438 111.679688 236.054688 111.679688 237.800781 L 111.679688 254.9375 L 105.828125 254.9375 C 76.117188 252.542969 60.652344 247.414062 55.597656 238.449219 C 50.242188 228.949219 57.5 217.742188 62.476562 207.519531 C 65.707031 209.722656 68.59375 211.699219 69.734375 212.421875 C 73.875 214.929688 80.332031 218.234375 88.996094 220.78125 C 108.601562 226.519531 130.5625 226.136719 154.234375 219.601562 C 154.84375 219.527344 161.71875 216.5625 175.890625 216.449219 C 188.773438 216.335938 210.085938 218.613281 238.46875 230.316406 C 241.507812 231.609375 254.085938 235.789062 270.003906 235.789062 C 283.761719 235.789062 302.1875 232.597656 319.246094 219.183594 C 319.664062 218.84375 321.601562 217.324219 323.808594 215.5 C 324.757812 225.148438 317.726562 235.371094 306.785156 242.664062 C 295.386719 250.265625 279.921875 254.597656 263.355469 254.898438 C 263.320312 254.9375 263.242188 254.9375 263.242188 254.9375 Z M 65.136719 201.59375 C 65.859375 199.808594 66.464844 198.019531 66.921875 196.234375 C 67.035156 195.96875 75.925781 172.566406 72.621094 147.679688 C 72.203125 144.523438 76.34375 142.664062 78.433594 145.550781 C 78.660156 145.777344 97.28125 173.589844 115.667969 173.96875 C 133.832031 174.351562 146.976562 160.292969 152.675781 148.171875 C 155.527344 142.09375 159.363281 138.636719 164.074219 137.875 C 172.128906 136.546875 179.957031 143.460938 187.214844 151.136719 C 187.328125 151.210938 187.441406 151.324219 187.519531 151.4375 L 177.941406 172.867188 C 176.992188 174.921875 178.511719 177.277344 180.832031 177.277344 C 182.046875 177.277344 183.226562 176.59375 183.679688 175.453125 L 192.417969 156 C 195.078125 158.316406 198.6875 161.128906 203.324219 164.242188 L 194.015625 184.875 C 193.066406 186.964844 194.625 189.320312 196.941406 189.320312 C 198.15625 189.320312 199.296875 188.636719 199.789062 187.457031 L 208.679688 167.664062 C 212.140625 169.789062 216.203125 172.03125 220.195312 174.046875 L 211.1875 194.375 C 210.238281 196.464844 211.757812 198.820312 214.078125 198.820312 C 215.292969 198.820312 216.46875 198.136719 216.925781 196.957031 L 225.894531 176.820312 C 229.921875 178.683594 234.0625 180.429688 238.394531 182.101562 L 229.390625 202.125 C 228.4375 204.214844 229.957031 206.570312 232.277344 206.570312 C 233.492188 206.570312 234.671875 205.847656 235.125 204.707031 L 244.28125 184.34375 C 260.886719 190.269531 279.464844 194.867188 299.832031 198.019531 C 307.582031 198.78125 313.699219 200.984375 317.839844 204.519531 C 319.4375 205.847656 320.730469 207.367188 321.71875 209.039062 C 318.640625 211.507812 315.449219 214.09375 314.839844 214.550781 C 301.238281 225.074219 285.164062 229.976562 266.851562 229.328125 C 251.84375 228.722656 240.976562 224.390625 240.902344 224.351562 C 185.695312 201.632812 155.414062 212.308594 152.410156 213.484375 C 109.210938 225.339844 82.273438 212.726562 72.621094 206.683594 C 71.632812 206.078125 68.515625 203.949219 65.136719 201.59375 Z M 65.136719 201.59375 " fill-opacity="1" fill-rule="evenodd"/><path fill="#004aad" d="M 142.609375 154.515625 C 136.757812 145.285156 136.757812 134.265625 140.972656 127.65625 C 144.582031 121.878906 150.890625 120.054688 157.425781 122.753906 C 161.832031 124.578125 166.089844 128.605469 169.355469 132.746094 C 159.363281 130.921875 152.03125 137.113281 147.890625 145.929688 C 146.484375 148.929688 144.699219 151.855469 142.609375 154.515625 Z M 142.609375 154.515625 " fill-opacity="1" fill-rule="evenodd"/></svg>